<svg width="30" height="30" viewBox="0 0 30 30" fill="none" xmlns="http://www.w3.org/2000/svg">
<rect opacity="0.1" width="30" height="30" rx="6" fill="#E5890A"/>
<path d="M22.245 13.8299L21.51 16.9649C20.88 19.6724 19.635 20.7674 17.295 20.5424C16.92 20.5124 16.515 20.4449 16.08 20.3399L14.82 20.0399C11.6925 19.2974 10.725 17.7524 11.46 14.6174L12.195 11.4749C12.345 10.8374 12.525 10.2824 12.75 9.82488C13.6275 8.00988 15.12 7.52238 17.625 8.11488L18.8775 8.40738C22.02 9.14238 22.98 10.6949 22.245 13.8299Z" stroke="#E5890A" stroke-width="1.5" stroke-linecap="round" stroke-linejoin="round"/>
<path d="M17.295 20.5427C16.83 20.8577 16.245 21.1202 15.5325 21.3527L14.3475 21.7427C11.37 22.7027 9.80251 21.9002 8.83501 18.9227L7.87501 15.9602C6.91501 12.9827 7.71001 11.4077 10.6875 10.4477L11.8725 10.0577C12.18 9.9602 12.4725 9.8777 12.75 9.8252C12.525 10.2827 12.345 10.8377 12.195 11.4752L11.46 14.6177C10.725 17.7527 11.6925 19.2977 14.82 20.0402L16.08 20.3402C16.515 20.4452 16.92 20.5127 17.295 20.5427Z" stroke="#E5890A" stroke-width="1.5" stroke-linecap="round" stroke-linejoin="round"/>
<path d="M15.48 12.3975L19.1175 13.32" stroke="#E5890A" stroke-width="1.5" stroke-linecap="round" stroke-linejoin="round"/>
<path d="M14.745 15.2998L16.92 15.8548" stroke="#E5890A" stroke-width="1.5" stroke-linecap="round" stroke-linejoin="round"/>
</svg>
