<svg width="30" height="30" viewBox="0 0 30 30" fill="none" xmlns="http://www.w3.org/2000/svg">
<rect opacity="0.1" width="30" height="30" rx="6" fill="#E5890A"/>
<path d="M15 7.5V12.75L16.5 11.25" stroke="#E5890A" stroke-width="1.5" stroke-linecap="round" stroke-linejoin="round"/>
<path d="M15 12.75L13.5 11.25" stroke="#E5890A" stroke-width="1.5" stroke-linecap="round" stroke-linejoin="round"/>
<path d="M7.48535 15.75H10.7929C11.0779 15.75 11.3329 15.9075 11.4604 16.1625L12.3379 17.9175C12.5929 18.4275 13.1104 18.75 13.6804 18.75H16.3279C16.8979 18.75 17.4154 18.4275 17.6704 17.9175L18.5479 16.1625C18.6754 15.9075 18.9379 15.75 19.2154 15.75H22.4854" stroke="#E5890A" stroke-width="1.5" stroke-linecap="round" stroke-linejoin="round"/>
<path d="M11.25 9.09766C8.595 9.48766 7.5 11.0477 7.5 14.2502V17.2502C7.5 21.0002 9 22.5002 12.75 22.5002H17.25C21 22.5002 22.5 21.0002 22.5 17.2502V14.2502C22.5 11.0477 21.405 9.48766 18.75 9.09766" stroke="#E5890A" stroke-width="1.5" stroke-linecap="round" stroke-linejoin="round"/>
</svg>
