<svg width="18" height="18" viewBox="0 0 18 18" fill="none" xmlns="http://www.w3.org/2000/svg">
<g clip-path="url(#clip0_215_9872)">
<path d="M9.00001 2.70764C5.21524 2.70764 2.13599 5.78693 2.13599 9.57166C2.13599 13.3566 5.21528 16.4359 9.00001 16.4359C12.785 16.4359 15.864 13.3566 15.864 9.57166C15.864 5.78693 12.7848 2.70764 9.00001 2.70764ZM9.00001 15.1919C5.90124 15.1919 3.3802 12.6707 3.3802 9.57191C3.3802 6.47314 5.90121 3.9521 9.00001 3.9521C12.0988 3.9521 14.6198 6.47314 14.6198 9.57191C14.6198 12.6708 12.0988 15.1919 9.00001 15.1919Z" fill="#EE2527"/>
<path d="M10.9078 9.36431H9.24888V6.95879C9.24888 6.61518 8.97038 6.33667 8.62676 6.33667C8.28315 6.33667 8.00464 6.61518 8.00464 6.95879V9.98644C8.00464 10.3301 8.28315 10.6086 8.62676 10.6086H10.9079C11.2515 10.6086 11.53 10.3301 11.53 9.98644C11.53 9.64282 11.2514 9.36431 10.9078 9.36431Z" fill="#EE2527"/>
<path d="M5.47613 14.0241C5.22065 13.7941 4.82725 13.8151 4.59751 14.0703L2.73114 16.1441C2.50115 16.3993 2.5221 16.7927 2.77737 17.0225C2.8962 17.1297 3.04508 17.1824 3.19337 17.1824C3.36363 17.1824 3.53326 17.1129 3.65603 16.9763L5.52239 15.9026C5.75235 14.6473 5.7314 14.2539 5.47613 14.0241Z" fill="#EE2527"/>
<path d="M15.2691 16.1444L13.4027 14.0707C13.1733 13.8152 12.7798 13.7944 12.5242 14.0244C12.2688 14.2542 12.2482 14.6476 12.478 15.9029L14.3444 16.9766C14.4669 17.113 14.6366 17.1825 14.8068 17.1825C15.9549 17.1825 15.1038 17.1298 15.2228 17.0228C15.4783 16.793 15.4988 16.3996 15.2691 16.1444Z" fill="#EE2527"/>
<path d="M5.3706 1.7243C4.13444 0.513874 2.14182 0.515738 0.928902 1.72887C0.325413 2.33211 -0.00431668 3.1303 4.26791e-05 3.97636C0.00461297 4.81227 0.335995 5.59492 0.933437 6.18013C1.05455 6.29853 1.21152 6.35763 1.36871 6.35763C1.52796 6.35763 1.68722 6.29667 1.80854 6.17556L5.37534 2.60876C5.49273 2.49119 5.55826 2.33169 5.55742 2.16561C5.55661 1.99947 5.48939 1.84063 5.3706 1.7243ZM1.43694 4.78738C1.31231 4.53626 1.24573 4.25839 1.24429 3.96972C1.24158 3.45876 1.4419 2.97515 1.80854 2.60851C2.17434 2.24292 2.65795 2.06022 3.14423 2.06022C3.42854 2.06022 3.7139 2.12262 3.97683 2.24746L1.43694 4.78738Z" fill="#EE2527"/>
<path d="M17.0711 1.72867C15.858 0.515747 13.8654 0.513673 12.6292 1.7241C12.5106 1.84043 12.4432 1.9993 12.4424 2.16538C12.4415 2.33149 12.5073 2.49117 12.6247 2.60852L16.1915 6.17532C16.3128 6.29685 16.4721 6.3576 16.6313 6.3576C16.7885 6.3576 16.9457 6.29851 17.0666 6.17968C17.6642 5.59468 17.9956 4.81207 18 3.97613C18.0043 3.13031 17.6744 2.33212 17.0711 1.72867ZM16.5631 4.78739L14.0232 2.2475C14.7362 1.90905 15.6119 2.02915 16.1915 2.60873C16.5582 2.97537 16.7585 3.45874 16.7558 3.96994C16.7543 4.2584 16.6877 4.53648 16.5631 4.78739Z" fill="#EE2527"/>
</g>
<defs>
<clipPath id="clip0_215_9872">
<rect width="18" height="18" fill="white"/>
</clipPath>
</defs>
</svg>
