<svg width="16" height="16" viewBox="0 0 16 16" fill="none" xmlns="http://www.w3.org/2000/svg">
<path d="M7.18597 11.2471L5.88416 11.0711C6.14452 11.3315 7.02743 13.5482 7.29434 13.2944C7.36706 13.2216 9.4987 12.3642 9.57216 12.2907C10.2594 11.5969 12.3285 9.58455 12.8827 8.82382C13.4017 8.11565 13.8407 7.35221 14.1918 6.54746C14.4914 5.85831 14.6525 5.11697 14.666 4.36564C14.6681 3.92581 14.5861 3.48962 14.4245 3.08055C14.255 2.65538 13.9926 2.27347 13.6565 1.96273C13.4789 1.77053 13.2645 1.61595 13.026 1.50814C12.7875 1.40033 12.5298 1.34149 12.2682 1.33509C12.0813 1.33436 11.8967 1.37536 11.7278 1.45509C11.5476 1.53682 11.3929 1.66604 11.2805 1.82891L9.73216 4.01073C9.62511 4.15531 9.53552 4.31203 9.46525 4.47764C9.40738 4.60584 9.37573 4.74431 9.37216 4.88491C9.37408 5.05293 9.42267 5.2171 9.51252 5.35909C9.61546 5.53309 9.74118 5.69256 9.88634 5.83327L10.3954 6.36055C10.4308 6.3952 10.4585 6.43682 10.4769 6.48277C10.4953 6.52871 10.504 6.57799 10.5023 6.62746C10.5021 6.67927 10.4953 6.73084 10.482 6.78091C10.4616 6.834 10.442 6.874 10.4289 6.91473C10.2496 7.21871 10.0416 7.50486 9.80779 7.76927C9.50743 8.11618 9.1867 8.47037 8.83979 8.82382C8.77288 8.89073 6.83397 10.5431 6.76779 10.61C6.4987 10.8704 6.91906 10.9802 7.18597 11.2471Z" fill="#F9E8D9"/>
<path d="M1.35474 12.2153C1.35558 12.4088 1.38953 12.6006 1.4551 12.7826C1.47455 12.8371 1.49688 12.8905 1.52201 12.9426C1.63855 13.1908 1.79151 13.4203 1.97583 13.6233C2.27632 13.9655 2.65057 14.2351 3.07037 14.4117C3.07692 14.4117 3.08346 14.4182 3.09074 14.4182C3.49771 14.5833 3.93301 14.6673 4.37219 14.6655C5.12298 14.6516 5.86319 14.4859 6.54819 14.1782C7.36153 13.8258 8.13228 13.3822 8.84565 12.8561C9.10601 12.6626 9.36637 12.4691 9.61292 12.2619L7.4311 10.0801C7.27516 10.1997 7.11004 10.307 6.93728 10.4008C6.90383 10.4139 6.86455 10.4342 6.81728 10.4539C6.76389 10.473 6.70743 10.4821 6.65074 10.4808C6.59897 10.4826 6.5474 10.4734 6.49949 10.4537C6.45157 10.434 6.40842 10.4043 6.37292 10.3666L5.86383 9.86623C5.724 9.7186 5.56296 9.59261 5.38601 9.49241C5.24462 9.40184 5.08046 9.35317 5.91255 9.35205C4.77243 9.35383 4.63403 9.38324 4.50528 9.4386C4.34105 9.50899 4.18458 9.59624 4.03837 9.69896L1.82892 11.2677C1.66992 11.3729 1.54388 11.5209 1.46528 11.6946C1.39473 11.8593 1.35717 12.0362 1.35474 12.2153Z" fill="#F9E8D9"/>
</svg>
