<svg width="20" height="20" viewBox="0 0 20 20" fill="none" xmlns="http://www.w3.org/2000/svg">
<mask id="mask0_7_730" style="mask-type:luminance" maskUnits="userSpaceOnUse" x="0" y="0" width="20" height="20">
<path d="M20 0H0V20H20V0Z" fill="white"/>
</mask>
<g mask="url(#mask0_7_730)">
<path d="M17.9813 5.788C17.888 5.44356 17.7061 5.12955 17.4539 4.87716C17.2016 4.62477 16.8877 4.4428 16.5433 4.34933C15.2666 4 10.1579 4 10.1579 4C10.1579 4 5.04994 4 3.77327 4.33333C3.42822 4.43141 3.1143 4.61681 2.86182 4.87163C2.60934 5.12645 2.42683 5.44206 2.33193 5.788C2.10121 7.0833 1.98963 8.39701 1.9986 9.71267C1.98914 11.0286 2.10072 12.3425 2.33193 13.638C2.4253 13.9825 2.60722 14.2966 2.85962 14.549C3.11202 14.8014 3.42609 14.9833 3.7706 15.0767C5.06127 15.426 10.1553 15.426 10.1553 15.426C10.1553 15.426 15.2633 15.426 16.5399 15.0927C16.885 14.9999 17.1997 14.8183 17.4527 14.566C17.7057 14.3137 17.8882 13.9995 17.9819 13.6547C18.2127 12.3591 18.3242 11.0452 18.3153 9.72933C18.3316 8.40876 18.22 7.08971 17.9819 5.79067L17.9813 5.788ZM8.53194 12.1593V7.26667L12.7793 9.71333L8.53194 12.1593Z" fill="#F9E8D9"/>
</g>
</svg>
