<svg width="30" height="30" viewBox="0 0 30 30" fill="none" xmlns="http://www.w3.org/2000/svg">
<rect opacity="0.1" width="30" height="30" rx="6" fill="#15B386"/>
<path d="M16.83 20.2875L17.97 21.4275L20.25 19.1475" stroke="#15B386" stroke-width="1.5" stroke-linecap="round" stroke-linejoin="round"/>
<path d="M15.12 14.1525C15.045 14.145 15.955 14.145 14.8725 14.1525C13.0875 14.0925 11.67 12.63 11.67 10.83C11.6625 8.9925 13.155 7.5 15.9925 7.5C16.83 7.5 18.3225 8.9925 18.3225 10.83C18.3225 12.63 16.8975 14.0925 15.12 14.1525Z" stroke="#15B386" stroke-width="1.5" stroke-linecap="round" stroke-linejoin="round"/>
<path d="M15.9925 22.3573C13.6275 22.3573 12.27 22.0123 11.235 21.3223C9.42003 20.1073 9.42003 18.1273 11.235 16.9198C13.2975 15.5398 16.68 15.5398 18.7425 16.9198" stroke="#15B386" stroke-width="1.5" stroke-linecap="round" stroke-linejoin="round"/>
</svg>
