<svg width="30" height="30" viewBox="0 0 30 30" fill="none" xmlns="http://www.w3.org/2000/svg">
<rect opacity="0.1" width="30" height="30" rx="6" fill="#E5890A"/>
<path d="M15 12.3135C13.5188 12.3135 12.3136 13.5186 12.3136 14.9999C12.3136 16.4811 13.5188 17.6863 15 17.6863C16.4813 17.6863 17.6864 16.4811 17.6864 14.9999C17.6864 13.5186 16.4813 12.3135 15 12.3135ZM15 16.4363C14.208 16.4363 13.5636 15.7919 13.5636 14.9999C13.5636 14.2079 14.208 13.5635 15 13.5635C15.792 13.5635 16.4364 14.2079 16.4364 14.9999C16.4364 15.7919 15.792 16.4363 15 16.4363Z" fill="#E5890A"/>
<path d="M11.5909 10.707C11.3467 10.4629 10.9509 10.4629 10.7072 10.707C9.55967 11.8546 8.9278 13.3792 8.9278 15.0001C8.9278 16.621 9.55967 18.1456 10.7072 19.2931C10.829 19.4151 10.9892 19.4762 11.149 19.4762C11.3089 19.4762 11.4689 19.4151 11.5909 19.2932C11.8351 19.0492 11.8351 18.6534 11.5909 18.4093C10.6797 17.4979 10.1778 16.2871 10.1778 15.0001C10.1778 13.7131 10.6797 12.5023 11.5909 11.5909C11.835 11.3468 11.835 10.951 11.5909 10.707Z" fill="#E5890A"/>
<path d="M6.78436 15.0004C6.78436 12.8076 7.63952 10.7449 9.19186 9.19244C9.43608 8.94822 9.43608 8.5526 9.19186 8.30854C8.94796 8.06447 8.55186 8.06447 8.30811 8.30854C6.51952 10.0971 5.53436 12.4737 5.53436 15.0004C5.53436 17.5271 6.51952 19.9037 8.30811 21.6924C8.42999 21.8143 8.59014 21.8754 8.74999 21.8754C8.90983 21.8754 9.06999 21.8143 9.19186 21.6924C9.43608 21.4482 9.43608 21.0526 9.19186 20.8085C7.63952 19.2559 6.78436 17.1932 6.78436 15.0004Z" fill="#E5890A"/>
<path d="M19.293 10.707C19.0491 10.4628 18.6533 10.463 18.4092 10.707C18.165 10.9511 18.165 11.3469 18.4092 11.5909C19.3203 12.5022 19.8222 13.713 19.8222 15C19.8222 16.287 19.3203 17.4978 18.4091 18.4092C18.1648 18.6533 18.1648 19.0491 18.4091 19.2931C18.5311 19.4152 18.6911 19.4761 18.8509 19.4761C19.0108 19.4761 19.1709 19.415 19.2928 19.293C20.4403 18.1455 21.0722 16.6209 21.0722 15C21.0722 13.3791 20.4403 11.8545 19.293 10.707Z" fill="#E5890A"/>
<path d="M21.6919 8.30805C21.4479 8.06398 21.0519 8.06398 20.8081 8.30805C20.5639 8.55227 20.5639 8.94789 20.8081 9.19195C22.3604 10.7446 23.2156 12.8073 23.2156 15.0001C23.2156 17.1929 22.3604 19.2555 20.8081 20.808C20.5639 21.0523 20.5639 21.4479 20.8081 21.692C20.93 21.814 21.0901 21.8749 21.25 21.8749C21.4098 21.8749 21.57 21.8138 21.6919 21.692C23.4804 19.9034 24.4656 17.5268 24.4656 15.0001C24.4656 12.4734 23.4804 10.0968 21.6919 8.30805Z" fill="#E5890A"/>
</svg>
