<svg width="38" height="38" viewBox="0 0 38 38" fill="none" xmlns="http://www.w3.org/2000/svg">
<path opacity="0.4" d="M28.5 32.4584H26.9167V32.0625C26.9167 30.3209 25.4917 28.8959 23.75 28.8959H20.1875V25.27C19.7917 25.3175 19.3958 25.3334 19 25.3334C18.6042 25.3334 18.2083 25.3175 17.8125 25.27V28.8959H14.25C12.5083 28.8959 11.0833 30.3209 11.0833 32.0625V32.4584H9.5C8.85083 32.4584 8.3125 32.9967 8.3125 33.6459C8.3125 34.295 8.85083 34.8334 9.5 34.8334H28.5C29.1492 34.8334 29.6875 34.295 29.6875 33.6459C29.6875 32.9967 29.1492 32.4584 28.5 32.4584Z" fill="#E5890A"/>
<path opacity="0.4" d="M8.73938 18.4298C7.69438 18.034 6.77604 17.3848 6.04771 16.6565C4.57521 15.0257 3.60938 13.0782 3.60938 10.7982C3.60938 8.51817 5.39854 6.729 7.67854 6.729H8.56521C8.15354 7.56817 7.91604 8.50234 7.91604 9.49984V14.2498C7.91604 15.7382 8.20104 17.1473 8.73938 18.4298Z" fill="#E5890A"/>
<path opacity="0.4" d="M34.3898 10.7982C34.3898 13.0782 33.4239 15.0257 31.9514 16.6565C31.2231 17.3848 30.3048 18.034 29.2598 18.4298C29.7981 17.1473 30.0831 15.7382 30.0831 14.2498V9.49984C30.0831 8.50234 29.8456 7.56817 29.4339 6.729H30.3206C32.6006 6.729 34.3898 8.51817 34.3898 10.7982Z" fill="#E5890A"/>
<path d="M23.7493 3.1665H14.2493C10.7502 3.1665 7.91602 6.00067 7.91602 9.49984V14.2498C7.91602 20.3773 12.8718 25.3332 18.9993 25.3332C25.1268 25.3332 30.0827 20.3773 30.0827 14.2498V9.49984C30.0827 6.00067 27.2485 3.1665 23.7493 3.1665ZM23.496 13.379L22.5143 14.5823C22.356 14.7565 22.2452 15.1048 22.261 15.3423L22.356 16.894C22.4193 17.844 21.7385 18.3348 20.8518 17.9865L19.411 17.4165C19.1893 17.3373 18.8093 17.3373 18.5877 17.4165L17.1468 17.9865C16.2602 18.3348 15.5793 17.844 15.6427 16.894L15.7377 15.3423C15.7535 15.1048 15.6427 14.7565 15.4843 14.5823L14.5027 13.379C13.8852 12.6507 14.1543 11.8432 15.0727 11.6057L16.5768 11.2257C16.8143 11.1623 17.0993 10.9407 17.226 10.7348L18.0652 9.4365C18.5877 8.629 19.411 8.629 19.9335 9.4365L20.7727 10.7348C20.8993 10.9407 21.1843 11.1623 21.4218 11.2257L22.926 11.6057C23.8443 11.8432 24.1135 12.6507 23.496 13.379Z" fill="#E5890A"/>
<path opacity="0.4" d="M23.4966 13.3792L22.5149 14.5825C22.3566 14.7567 22.2458 15.105 22.2616 15.3425L22.3566 16.8942C22.4199 17.8442 21.7391 18.335 20.8524 17.9867L19.4116 17.4167C19.1899 17.3375 18.8099 17.3375 18.5883 17.4167L17.1474 17.9867C16.2608 18.335 15.5799 17.8442 15.6433 16.8942L15.7383 15.3425C15.7541 15.105 15.6433 14.7567 15.4849 14.5825L14.5033 13.3792C13.8858 12.6508 14.1549 11.8433 15.0733 11.6058L16.5774 11.2258C16.8149 11.1625 17.0999 10.9408 17.2266 10.735L18.0658 9.43668C18.5883 8.62918 19.4116 8.62918 19.9341 9.43668L20.7733 10.735C20.8999 10.9408 21.1849 11.1625 21.4224 11.2258L22.9266 11.6058C23.8449 11.8433 24.1141 12.6508 23.4966 13.3792Z" fill="#E5890A"/>
</svg>
