<svg width="30" height="30" viewBox="0 0 30 30" fill="none" xmlns="http://www.w3.org/2000/svg">
<path d="M22.2451 13.8299L21.5101 16.9649C20.8801 19.6724 19.6351 20.7674 17.2951 20.5424C16.9201 20.5124 16.5151 20.4449 16.0801 20.3399L14.8201 20.0399C11.6926 19.2974 10.7251 17.7524 11.4601 14.6174L12.1951 11.4749C12.3451 10.8374 12.5251 10.2824 12.7501 9.82488C13.6276 8.00988 15.1201 7.52238 17.6251 8.11488L18.8776 8.40738C22.0201 9.14238 22.9801 10.6949 22.2451 13.8299Z" stroke="#E5890A" stroke-width="1.5" stroke-linecap="round" stroke-linejoin="round"/>
<path d="M17.2957 20.5427C16.8307 20.8577 16.2457 21.1202 15.5332 21.3527L14.3482 21.7427C11.3707 22.7027 9.80324 21.9002 8.83574 18.9227L7.87574 15.9602C6.91574 12.9827 7.71074 11.4077 10.6882 10.4477L11.8732 10.0577C12.1807 9.9602 12.4732 9.8777 12.7507 9.8252C12.5257 10.2827 12.3457 10.8377 12.1957 11.4752L11.4607 14.6177C10.7257 17.7527 11.6932 19.2977 14.8207 20.0402L16.0807 20.3402C16.5157 20.4452 16.9207 20.5127 17.2957 20.5427Z" stroke="#E5890A" stroke-width="1.5" stroke-linecap="round" stroke-linejoin="round"/>
<path d="M15.4805 12.3975L19.118 13.32" stroke="#E5890A" stroke-width="1.5" stroke-linecap="round" stroke-linejoin="round"/>
<path d="M14.7441 15.2998L16.9191 15.8548" stroke="#E5890A" stroke-width="1.5" stroke-linecap="round" stroke-linejoin="round"/>
<rect opacity="0.1" width="30" height="30" rx="6" fill="#E5890A"/>
</svg>
