<svg width="16" height="16" viewBox="0 0 16 16" fill="none" xmlns="http://www.w3.org/2000/svg">
<path d="M14.3533 7.24667L13.34 6.23334C13.1667 6.06 13.0267 5.72 13.0267 5.48V4.04C13.0267 3.45334 12.5467 2.97334 11.96 2.97334H10.5267C10.2867 2.97334 9.94667 2.83334 9.77334 2.66L8.76 1.64667C8.34667 1.23334 7.66667 1.23334 7.25334 1.64667L6.22667 2.66C6.06 2.83334 5.72 2.97334 5.47334 2.97334H4.04C3.45334 2.97334 2.97334 3.45334 2.97334 4.04V5.47334C2.97334 5.71334 2.83334 6.05334 2.66 6.22667L1.64667 7.24C1.23334 7.65334 1.23334 8.33334 1.64667 8.74667L2.66 9.76C2.83334 9.93334 2.97334 10.2733 2.97334 10.5133V11.9467C2.97334 12.5333 3.45334 13.0133 4.04 13.0133H5.47334C5.71334 13.0133 6.05334 13.1533 6.22667 13.3267L7.24 14.34C7.65334 14.7533 8.33334 14.7533 8.74667 14.34L9.76 13.3267C9.93334 13.1533 10.2733 13.0133 10.5133 13.0133H11.9467C12.5333 13.0133 13.0133 12.5333 13.0133 11.9467V10.5133C13.0133 10.2733 13.1533 9.93334 13.3267 9.76L14.34 8.74667C14.7733 8.34 14.7733 7.66 14.3533 7.24667ZM5.33334 6C5.33334 5.63334 5.63334 5.33334 6 5.33334C6.36667 5.33334 6.66667 5.63334 6.66667 6C6.66667 6.36667 6.37334 6.66667 6 6.66667C5.63334 6.66667 5.33334 6.36667 5.33334 6ZM6.35334 10.3533C6.25334 10.4533 6.12667 10.5 6 10.5C5.87334 10.5 5.74667 10.4533 5.64667 10.3533C5.45334 10.16 5.45334 9.84 5.64667 9.64667L9.64667 5.64667C9.84 5.45334 10.16 5.45334 10.3533 5.64667C10.5467 5.84 10.5467 6.16 10.3533 6.35334L6.35334 10.3533ZM10 10.6667C9.62667 10.6667 9.32667 10.3667 9.32667 10C9.32667 9.63334 9.62667 9.33334 9.99334 9.33334C10.36 9.33334 10.66 9.63334 10.66 10C10.66 10.3667 10.3667 10.6667 10 10.6667Z" fill="#15B386"/>
</svg>
