<svg width="17" height="17" viewBox="0 0 17 17" fill="none" xmlns="http://www.w3.org/2000/svg">
<mask id="mask0_131_6175" style="mask-type:luminance" maskUnits="userSpaceOnUse" x="0" y="0" width="17" height="17">
<path d="M16.9357 0.21582H0.827881V16.6159H16.9357V0.21582Z" fill="white"/>
</mask>
<g mask="url(#mask0_131_6175)">
<path fill-rule="evenodd" clip-rule="evenodd" d="M8.84272 0.21582C9.91442 0.254805 11.0263 0.254806 12.0954 0.293791C13.0326 0.290453 13.9549 0.53115 14.7742 0.992853C15.2869 1.29761 15.7275 1.7128 16.0648 2.20912C16.4021 2.70544 16.6279 3.2708 16.7263 3.86531C16.828 4.61195 16.8918 5.36339 16.9176 6.11667C16.956 7.74693 16.9176 9.37719 16.9176 11.0083C16.9503 11.8607 16.8468 12.7129 16.611 13.5317C16.3902 14.2724 15.9678 14.9349 15.3924 15.443C14.817 15.9511 14.112 16.2843 13.3584 16.4042C12.6254 16.5264 11.8843 16.5913 11.1416 16.5982C9.53448 16.6372 7.96493 16.5982 6.35781 16.5982C5.51757 16.6317 4.67753 16.527 3.87028 16.2881C3.14009 16.0641 2.48703 15.6356 1.98613 15.0519C1.48523 14.4683 1.15681 13.7531 1.03862 12.9886C0.918004 12.2442 0.854055 11.4915 0.847342 10.7372C0.808911 9.10696 0.847342 7.47581 0.847342 5.84555C0.814586 4.99315 0.918117 4.141 1.15392 3.32218C1.37478 2.58148 1.79716 1.919 2.37253 1.41089C2.94791 0.902768 3.65292 0.569622 4.40657 0.449728C5.14036 0.327361 5.88235 0.262488 6.62596 0.255689C7.35003 0.215819 8.0776 0.21582 8.84272 0.21582ZM15.4633 8.25196C15.4249 7.59188 15.4249 6.97079 15.4249 6.31071C15.4248 5.68869 15.3866 5.06728 15.3105 4.45008C15.2793 3.81529 15.0342 3.21061 14.6162 2.73712C14.1983 2.26363 13.6328 1.95003 13.0142 1.84874C12.3072 1.71996 11.5887 1.66798 10.8708 1.69369C9.49343 1.6547 8.15359 1.6547 6.77619 1.69369C6.09701 1.68594 5.41844 1.73782 4.74808 1.84874C4.20974 1.91219 3.70273 2.13869 3.29314 2.49871C2.88354 2.85873 2.59037 3.33557 2.45183 3.86708C2.35097 4.24824 2.28691 4.63844 2.26055 5.03219C2.22212 6.5074 2.22212 7.98261 2.22212 9.45782C2.22212 10.3899 2.26055 11.3601 2.33654 12.2931C2.35636 12.9377 2.60244 13.554 3.03048 14.0309C3.45851 14.5079 4.04036 14.8141 4.67122 14.8944C5.38032 15.0053 6.09718 15.0572 6.81462 15.0495C8.15446 15.0884 9.49343 15.0495 10.8717 15.0495C11.4849 15.0493 12.0975 15.0106 12.7059 14.9334C13.2822 14.904 13.8337 14.6865 14.2781 14.3132C14.622 14.0266 14.8971 13.6645 15.0828 13.2542C15.2684 12.8439 15.3597 12.3962 15.3498 11.9449C15.4214 10.7753 15.4214 9.53313 15.4633 8.25196Z" fill="white"/>
<path fill-rule="evenodd" clip-rule="evenodd" d="M12.9756 8.40666C12.9756 9.23754 12.7322 10.0497 12.2763 10.74C11.8204 11.4302 11.1727 11.9676 10.4152 12.2837C9.65774 12.5999 8.82475 12.6806 8.02199 12.5156C7.21922 12.3507 6.48287 11.9475 5.9064 11.3572C5.32994 10.767 4.93937 10.0163 4.78426 9.20044C4.62915 8.3846 4.7165 7.54041 5.03523 6.77502C5.35395 6.00963 5.88967 5.35757 6.57439 4.9016C7.25911 4.44563 8.06194 4.20632 8.88098 4.21405C9.97183 4.21991 11.0158 4.66476 11.7835 5.45087C12.5513 6.23699 12.98 7.30009 12.9756 8.40666ZM8.84255 11.1241C9.37237 11.1241 9.89029 10.9647 10.3308 10.6661C10.7713 10.3675 11.1147 9.94311 11.3174 9.44657C11.5202 8.95003 11.5732 8.40365 11.4699 7.87652C11.3665 7.3494 11.1114 6.86521 10.7368 6.48517C10.3621 6.10513 9.88479 5.84633 9.36516 5.74148C8.84552 5.63663 8.3069 5.69044 7.81741 5.89611C7.32792 6.10179 6.90955 6.45008 6.6152 6.89696C6.32085 7.34383 6.16374 7.86921 6.16374 8.40666C6.16153 8.76414 6.22932 9.11851 6.36316 9.44921C6.497 9.77991 6.69424 10.0804 6.94343 10.3331C7.19262 10.5859 7.48881 10.786 7.81481 10.9218C8.14081 11.0575 8.49015 11.1263 8.84255 11.1241Z" fill="white"/>
<path d="M14.0854 4.01773C14.0892 4.28057 13.9903 4.53423 13.8102 4.72332C13.6302 4.9124 13.3838 5.02154 13.1247 5.0269C12.9317 5.03002 12.7421 4.97505 12.5799 4.86894C12.4177 4.76284 12.2901 4.61035 12.2133 4.43074C12.1365 4.25113 12.1139 4.05245 12.1483 3.8598C12.1827 3.66715 12.2726 3.48917 12.4067 3.34833C12.5408 3.2075 12.713 3.11013 12.9016 3.06852C13.0902 3.02692 13.2867 3.04294 13.4664 3.11457C13.646 3.18619 13.8007 3.31021 13.9109 3.47096C14.021 3.63171 14.0818 3.82198 14.0854 4.01773Z" fill="white"/>
</g>
</svg>
