<svg width="30" height="30" viewBox="0 0 30 30" fill="none" xmlns="http://www.w3.org/2000/svg">
<circle opacity="0.2" cx="15" cy="15" r="15" fill="#E5890A"/>
<path d="M17.625 10.1875H11.375C9.5 10.1875 8.25 11.125 8.25 13.3125V17.6875C8.25 19.875 9.5 20.8125 11.375 20.8125H17.625C19.5 20.8125 20.75 19.875 20.75 17.6875V13.3125C20.75 11.125 19.5 10.1875 17.625 10.1875ZM17.9187 13.9938L15.9625 15.5563C15.55 15.8875 15.025 16.05 14.5 16.05C13.975 16.05 13.4437 15.8875 13.0375 15.5563L11.0813 13.9938C10.8813 13.8313 10.85 13.5312 11.0062 13.3312C11.1687 13.1312 11.4625 13.0938 11.6625 13.2562L13.6188 14.8187C14.0938 15.2 14.9 15.2 15.375 14.8187L17.3313 13.2562C17.5312 13.0938 17.8313 13.125 17.9875 13.3312C18.15 13.5312 18.1187 13.8313 17.9187 13.9938Z" fill="#E5890A"/>
</svg>
