<svg width="30" height="30" viewBox="0 0 30 30" fill="none" xmlns="http://www.w3.org/2000/svg">
<rect opacity="0.1" width="30" height="30" rx="6" fill="#E5890A"/>
<path d="M22.5 18.555V9.50252C22.5 8.60252 21.765 7.93502 20.8725 8.01002H20.8275C19.2525 8.14502 16.86 8.94752 15.525 9.78752L15.3975 9.87002C15.18 10.005 14.82 10.005 14.6025 9.87002L14.415 9.75752C13.08 8.92502 10.695 8.13002 9.12 8.00252C8.2275 7.92752 7.5 8.60252 7.5 9.49502V18.555C7.5 19.275 8.085 19.95 8.805 20.04L9.0225 20.07C10.65 20.2875 13.1625 21.1125 14.6025 21.9L14.6325 21.915C14.835 22.0275 15.1575 22.0275 15.3525 21.915C16.7925 21.12 19.3125 20.2875 20.9475 20.07L21.195 20.04C21.915 19.95 22.5 19.275 22.5 18.555Z" stroke="#E5890A" stroke-width="1.5" stroke-linecap="round" stroke-linejoin="round"/>
<path d="M15 10.1174V21.3674" stroke="#E5890A" stroke-width="1.5" stroke-linecap="round" stroke-linejoin="round"/>
<path d="M11.8125 12.3674H10.125" stroke="#E5890A" stroke-width="1.5" stroke-linecap="round" stroke-linejoin="round"/>
<path d="M12.375 14.6174H10.125" stroke="#E5890A" stroke-width="1.5" stroke-linecap="round" stroke-linejoin="round"/>
</svg>
