<svg width="30" height="30" viewBox="0 0 30 30" fill="none" xmlns="http://www.w3.org/2000/svg">
<rect opacity="0.1" width="30" height="30" rx="6" fill="#E5890A"/>
<path d="M22.245 13.8299L21.51 16.9649C20.88 19.6724 19.635 20.7674 17.295 20.5424C16.92 20.5124 16.515 20.4449 16.08 20.3399L14.82 20.0399C11.6925 19.2974 10.725 17.7524 11.46 14.6174L12.195 11.4749C12.345 10.8374 12.525 10.2824 12.75 9.82488C13.6275 8.00988 15.12 7.52238 17.625 8.11488L18.8775 8.40738C22.02 9.14238 22.98 10.6949 22.245 13.8299Z" stroke="#E5890A" stroke-width="1.5" stroke-linecap="round" stroke-linejoin="round"/>
<path d="M17.295 20.5425C16.83 20.8575 16.245 21.12 15.5325 21.3525L14.3475 21.7425C11.37 22.7025 9.80251 21.9 8.83501 18.9225L7.87501 15.96C6.91501 12.9825 7.71001 11.4075 10.6875 10.4475L11.8725 10.0575C12.18 9.95995 12.4725 9.87745 12.75 9.82495C12.525 10.2825 12.345 10.8375 12.195 11.475L11.46 14.6175C10.725 17.7525 11.6925 19.2975 14.82 20.04L16.08 20.34C16.515 20.445 16.92 20.5125 17.295 20.5425Z" stroke="#E5890A" stroke-width="1.5" stroke-linecap="round" stroke-linejoin="round"/>
<path d="M15.48 12.3975L19.1175 13.32" stroke="#E5890A" stroke-width="1.5" stroke-linecap="round" stroke-linejoin="round"/>
<path d="M14.745 15.3L16.92 15.8551" stroke="#E5890A" stroke-width="1.5" stroke-linecap="round" stroke-linejoin="round"/>
</svg>
