<svg width="30" height="30" viewBox="0 0 30 30" fill="none" xmlns="http://www.w3.org/2000/svg">
<rect opacity="0.1" width="30" height="30" rx="6" fill="#E5890A"/>
<path d="M15.1125 18.375V19.95" stroke="#E5890A" stroke-width="1.5" stroke-linecap="round" stroke-linejoin="round"/>
<path d="M11.3625 22.5H18.8625V21.75C18.8625 20.925 18.1875 20.25 17.3625 20.25H12.8625C12.0375 20.25 11.3625 20.925 11.3625 21.75V22.5V22.5Z" stroke="#E5890A" stroke-width="1.5" stroke-miterlimit="10"/>
<path d="M10.6125 22.5H19.6125" stroke="#E5890A" stroke-width="1.5" stroke-linecap="round" stroke-linejoin="round"/>
<path d="M15 18C12.0975 18 9.75 15.6525 9.75 12.75V10.5C9.75 8.8425 11.0925 7.5 12.75 7.5H17.25C18.9075 7.5 20.25 8.8425 20.25 10.5V12.75C20.25 15.6525 17.9025 18 15 18Z" stroke="#E5890A" stroke-width="1.5" stroke-linecap="round" stroke-linejoin="round"/>
<path d="M10.1025 14.7375C9.54003 14.5575 9.04503 14.2275 8.65503 13.8375C7.98003 13.0875 7.53003 12.1875 7.53003 11.1375C7.53003 10.0875 8.35503 9.26245 9.40503 9.26245H9.89253C9.74253 9.60745 9.66753 9.98995 9.66753 10.3875V12.6375C9.66753 13.3875 9.82503 14.0925 10.1025 14.7375Z" stroke="#E5890A" stroke-width="1.5" stroke-linecap="round" stroke-linejoin="round"/>
<path d="M19.8975 14.7375C20.46 14.5575 20.955 14.2275 21.345 13.8375C22.02 13.0875 22.47 12.1875 22.47 11.1375C22.47 10.0875 21.645 9.26245 20.595 9.26245H20.1075C20.2575 9.60745 20.3325 9.98995 20.3325 10.3875V12.6375C20.3325 13.3875 20.175 14.0925 19.8975 14.7375Z" stroke="#E5890A" stroke-width="1.5" stroke-linecap="round" stroke-linejoin="round"/>
</svg>
