<svg width="20" height="20" viewBox="0 0 20 20" fill="none" xmlns="http://www.w3.org/2000/svg">
<path opacity="0.4" fill-rule="evenodd" clip-rule="evenodd" d="M7.01928 1.6665H13.8384C14.3606 1.6665 14.7063 2.20829 14.4865 2.68186L13.1072 5.65252C12.8874 6.12609 13.2332 6.66788 13.7553 6.66788H16.3819C17.0275 6.66788 17.342 7.45633 16.8736 7.90069L6.08757 18.1336C5.56372 18.6306 4.71741 18.1255 5.90618 17.4285L6.31863 12.2133C6.44165 11.7591 6.09959 11.312 5.629 11.312H3.21533C2.69354 11.312 2.34774 10.7709 2.56696 10.2974L6.37092 2.08082C6.48787 1.82819 6.7409 1.6665 7.01928 1.6665ZM8.49986 3.09547H8.27739C7.99504 3.09547 7.73917 3.26175 7.62449 3.51977L5.40166 8.52115C5.19167 8.99363 5.53752 9.52581 6.05456 9.52581H6.27702C6.55938 9.52581 6.81525 9.35953 6.92993 9.10151L9.15276 4.10013C9.36275 3.62765 9.0169 3.09547 8.49986 3.09547Z" fill="#E47D07"/>
<path d="M8.50043 3.0957H8.27796C7.99561 3.0957 7.73974 3.26199 7.62506 3.52001L5.40223 8.52138C5.19224 8.99386 5.53809 9.52604 6.05513 9.52604H6.2776C6.55995 9.52604 6.81582 9.35976 6.9305 9.10174L9.15333 4.10036C9.36332 3.62789 9.01747 3.0957 8.50043 3.0957Z" fill="#E47D07"/>
</svg>
