<svg width="30" height="30" viewBox="0 0 30 30" fill="none" xmlns="http://www.w3.org/2000/svg">
<path d="M3.7875 24.1625C3.7875 24.6125 3.8875 25.075 4.1 25.525C4.3125 25.975 4.5875 26.4 5.95 26.8C5.5625 27.475 6.2375 27.9625 7 28.275C7.75 28.5875 8.5625 28.75 9.4375 28.75C10.7125 28.75 12.075 28.45 13.5125 27.8375C15.95 27.225 16.3875 26.4 17.8125 25.3625C19.25 24.3125 20.6125 23.15 21.9125 21.8625C23.2 20.5625 24.3625 19.2 25.4 17.775C26.425 16.35 27.25 15.925 27.85 13.5125C28.45 12.0875 28.75 10.725 28.75 9.425C28.75 8.575 28.6 7.7625 28.3 7.0125C28 6.25 27.525 5.55 26.8625 5.925C26.0625 4.1375 25.1875 3.75 24.2625 3.75C23.9125 3.75 23.5625 3.825 23.25 3.975C22.925 4.125 22.6375 4.35 22.4125 4.675L19.5125 8.7625C19.2875 9.075 19.125 9.3625 19.0125 9.6375C18.9 9.9 18.8375 10.1625 18.8375 10.4C18.8375 10.7 18.925 11 19.1 11.2875C19.2625 11.575 19.5 11.875 19.8 12.175L20.75 13.1625C20.8875 13.3 20.95 13.4625 20.95 13.6625C20.95 13.7625 20.9375 13.85 20.9125 13.95C20.875 14.05 20.8375 14.125 20.8125 14.2C20.5875 14.6125 20.2 15.15 19.65 15.8C19.0875 16.45 18.4875 17.1125 17.8375 17.775C17.1625 18.4375 16.5125 19.05 15.85 19.6125C15.2 20.1625 14.6625 20.5375 14.2375 20.7625C14.175 20.7875 14.1 20.825 14.0125 20.8625C13.9125 20.9 13.8125 20.9125 13.7 20.9125C13.4875 20.9125 13.325 20.8375 13.1875 20.7L12.2375 19.7625C11.925 19.45 11.625 19.2125 11.3375 19.0625C11.05 18.8875 10.7625 18.8 10.45 18.8C10.2125 18.8 9.9625 18.85 9.6875 18.9625C9.4125 19.075 9.125 19.2375 8.8125 19.45L4.675 22.3875C4.35 22.6125 4.125 22.875 3.9875 23.1875C3.8625 23.5 3.7875 23.8125 3.7875 24.1625Z" stroke="#F2F2F2" stroke-width="1.8" stroke-miterlimit="10"/>
<path d="M8.125 12.5C8.125 11.75 8.7125 10.6 9.5875 9.6625C10.3875 8.8 11.45 8.125 12.5 8.125" stroke="#F2F2F2" stroke-width="1.8" stroke-linecap="round" stroke-linejoin="round"/>
<path d="M3.75 12.5C3.75 7.6625 7.6625 3.75 12.5 3.75" stroke="#F2F2F2" stroke-width="1.8" stroke-linecap="round" stroke-linejoin="round"/>
</svg>
