<svg width="30" height="30" viewBox="0 0 30 30" fill="none" xmlns="http://www.w3.org/2000/svg">
<path d="M21.5625 15.9375C21.5625 19.56 18.6225 22.5 15 22.5C11.3775 22.5 8.4375 19.56 8.4375 15.9375C8.4375 12.315 11.3775 9.375 15 9.375C18.6225 9.375 21.5625 12.315 21.5625 15.9375Z" stroke="#E5890A" stroke-width="1.5" stroke-linecap="round" stroke-linejoin="round"/>
<path d="M15 12V15.75" stroke="#E5890A" stroke-width="1.5" stroke-linecap="round" stroke-linejoin="round"/>
<path d="M12.75 7.5H17.25" stroke="#E5890A" stroke-width="1.5" stroke-miterlimit="10" stroke-linecap="round" stroke-linejoin="round"/>
<path opacity="0.1" d="M0 6C0 2.68629 2.68629 0 6 0H24C27.3137 0 30 2.68629 30 6V24C30 27.3137 27.3137 30 24 30H6C2.68629 30 0 27.3137 0 24V6Z" fill="#E5890A"/>
</svg>
