<svg width="40" height="40" viewBox="0 0 40 40" fill="none" xmlns="http://www.w3.org/2000/svg">
<rect x="0.4" y="0.4" width="39.2" height="39.2" rx="3.6" fill="white" stroke="#E5890A" stroke-width="0.8"/>
<g clip-path="url(#clip0_340_2978)">
<path d="M16.491 10.6432H11.8127C11.1667 10.6432 10.6431 11.1668 10.6431 11.8128V16.4911C10.6431 17.1371 11.1667 17.6607 11.8127 17.6607H16.491C17.137 17.6607 17.6606 17.1371 17.6606 16.4911V11.8128C17.6606 11.1668 17.137 10.6432 16.491 10.6432Z" stroke="#E5890A" stroke-width="2" stroke-linecap="round" stroke-linejoin="round"/>
<path d="M28.1873 10.6432H23.5089C22.863 10.6432 22.3394 11.1668 22.3394 11.8128V16.4911C22.3394 17.1371 22.863 17.6607 23.5089 17.6607H28.1873C28.8333 17.6607 29.3569 17.1371 29.3569 16.4911V11.8128C29.3569 11.1668 28.8333 10.6432 28.1873 10.6432Z" stroke="#E5890A" stroke-width="2" stroke-linecap="round" stroke-linejoin="round"/>
<path d="M16.491 22.3391H11.8127C11.1667 22.3391 10.6431 22.8627 10.6431 23.5087V28.1871C10.6431 28.833 11.1667 29.3567 11.8127 29.3567H16.491C17.137 29.3567 17.6606 28.833 17.6606 28.1871V23.5087C17.6606 22.8627 17.137 22.3391 16.491 22.3391Z" stroke="#E5890A" stroke-width="2" stroke-linecap="round" stroke-linejoin="round"/>
<path d="M28.1873 22.3391H23.5089C22.863 22.3391 22.3394 22.8627 22.3394 23.5087V28.1871C22.3394 28.833 22.863 29.3567 23.5089 29.3567H28.1873C28.8333 29.3567 29.3569 28.833 29.3569 28.1871V23.5087C29.3569 22.8627 28.8333 22.3391 28.1873 22.3391Z" stroke="#E5890A" stroke-width="2" stroke-linecap="round" stroke-linejoin="round"/>
</g>
<defs>
<clipPath id="clip0_340_2978">
<rect width="21.0526" height="21.0526" fill="white" transform="translate(9.47363 9.47363)"/>
</clipPath>
</defs>
</svg>
