<svg width="16" height="16" viewBox="0 0 16 16" fill="none" xmlns="http://www.w3.org/2000/svg">
<path d="M15.0625 4.86804H15.5312C15.7901 4.86804 16 5.07792 16 5.33679V12.8368C16 13.0957 15.7901 13.3055 15.5312 13.3055H15.0625C14.5447 13.3055 14.125 12.8858 14.125 12.368V5.80554C14.125 5.28779 14.5447 4.86804 15.0625 4.86804Z" fill="white"/>
<path d="M1.40625 4.86806H5.96216L7.44716 3.38352C8.29494 2.53527 9.63894 2.46206 10.5746 3.20821L13.1875 5.29871C13.1875 11.3527 13.1875 9.85937 13.1875 12.5675C11.8376 13.0481 10.4231 13.3056 8.96875 13.3056H7.09375C6.31831 13.3056 5.6875 12.6748 5.6875 11.8993C5.6875 11.7167 5.72228 11.5418 5.78638 11.3811C5.18944 11.2186 4.75 10.6716 4.75 10.0243C4.75 9.84168 4.78478 9.66684 4.84888 9.50615C4.25194 9.34365 3.8125 8.79662 3.8125 8.14934C3.8125 7.98499 3.84087 7.82709 3.89306 7.68059H1.40625C0.630813 7.68059 0 7.04977 0 6.27434C0 5.4989 0.630813 4.86806 1.40625 4.86806Z" fill="white"/>
</svg>
