<svg width="20" height="20" viewBox="0 0 20 20" fill="none" xmlns="http://www.w3.org/2000/svg">
<path d="M14.1274 4.63174L13.2813 5.45659C13.0208 5.71045 12.9018 6.07616 12.9634 6.43467L13.1631 7.59916C13.3179 8.50182 12.3707 9.19014 11.5599 8.76393L10.5141 8.2142C10.1923 8.04479 9.80773 8.04479 9.4859 8.2142L8.44012 8.76393C7.62934 9.19014 6.68211 8.50182 6.83691 7.59916L7.0366 6.43467C7.0982 6.07616 6.97926 5.71049 6.71871 5.45659L5.87262 4.63174C5.21695 3.99252 5.57891 2.87905 6.485 2.74733L7.65426 2.57737C8.0141 2.52506 8.32535 2.29905 8.48625 1.97295L9.00914 0.913345C9.21183 0.502759 9.60594 0.297485 10 0.297485C10.3941 0.297485 10.7882 0.502759 10.9909 0.913306L11.5137 1.97291C11.6747 2.29901 11.9859 2.52502 12.3457 2.57733L13.515 2.74729C14.4211 2.87901 14.7831 3.99252 14.1274 4.63174Z" fill="#F9DA41"/>
<path d="M7.31918 4.77514C7.66519 5.65467 8.17828 6.24292 7.81789 7.07331C7.45754 7.90397 7.63969 8.99491 9.4859 8.21417L8.44012 8.76389C7.62934 9.1901 6.68211 8.50178 6.83691 7.59913L7.0366 6.43463C7.0982 6.07612 6.97926 5.71045 6.71871 5.45655L5.87262 4.6317C5.21695 3.99249 5.57891 2.87901 6.485 2.74729L7.65426 2.57733C8.0141 2.52502 8.32535 2.29901 8.48625 1.97292L9.00914 0.913306C9.21184 0.502759 9.60594 0.297485 10 0.297485C9.22246 0.297485 9.54566 2.53991 8.43242 3.12811C7.31918 3.71663 6.97316 3.89561 7.31918 4.77514Z" fill="#EDC932"/>
<path d="M5.72465 7.9291L5.1948 8.44562C5.03168 8.60461 5.95715 8.83359 5.99574 9.05813L5.12078 9.78734C5.21773 10.3526 4.62453 10.7837 4.11683 10.5168L3.46195 10.1725C3.26039 10.0664 3.01961 10.0664 2.81804 10.1725L2.16316 10.5168C1.65543 10.7837 1.06226 10.3526 1.15922 9.78734L1.28425 9.05813C1.32285 8.83363 1.24832 8.60461 1.08519 8.44562L0.555349 7.9291C0.144763 7.52883 0.371403 6.83152 0.938825 6.74902L1.67105 6.64258C1.8964 6.6098 2.09129 6.46828 2.19207 6.26406L2.51953 5.60051C2.6464 5.3434 2.8932 5.21484 3.14 5.21484C3.38679 5.21484 3.63359 5.3434 3.76047 5.60051L4.08793 6.26406C4.18871 6.46828 4.38363 6.6098 4.60894 6.64258L5.34117 6.74902C5.90859 6.83152 6.13523 7.52883 5.72465 7.9291Z" fill="#F9DA41"/>
<path d="M1.46121 8.01891C1.67789 8.56969 1.99918 8.93805 1.77351 9.45809C1.54785 9.97828 1.66191 10.6614 2.81804 10.1725L2.16316 10.5168C1.65543 10.7837 1.06226 10.3526 1.15922 9.78734L1.28425 9.05813C1.32285 8.83363 1.24832 8.60461 1.08519 8.44562L0.555349 7.9291C0.144763 7.52883 0.371403 6.83152 0.938825 6.74902L1.67105 6.64258C1.8964 6.6098 2.09129 6.46828 2.19207 6.26406L2.51953 5.60051C2.6464 5.3434 2.8932 5.21484 3.14 5.21484C2.65308 5.21484 2.85547 6.6191 2.15832 6.98746C1.46121 7.35605 1.24449 7.46812 1.46121 8.01891Z" fill="#EDC932"/>
<path d="M19.4741 2.33105L19.0191 2.77465C18.879 2.91117 18.815 3.10785 18.8481 3.30066L18.9555 3.92695C19.0388 4.41242 18.5293 4.78262 18.0933 4.5534L17.5308 4.25773C17.3577 4.1666 17.1509 4.1666 16.9778 4.25773L16.4154 4.5534C15.9793 4.78262 15.4698 4.41242 15.5531 3.92695L15.6606 3.30066C15.6937 3.10785 15.6297 2.91117 15.4896 2.77465L15.0345 2.33102C14.6819 1.98723 14.8766 1.38836 15.3639 1.31754L15.9927 1.22613C16.1863 1.19801 16.3537 1.07645 16.4402 0.901055L16.7214 0.331172C16.8304 0.110391 17.0424 0 17.2543 0C17.4663 0 17.6782 0.110391 17.7872 0.331211L18.0684 0.901094C18.155 1.07648 18.3224 1.19801 18.5159 1.22617L19.1448 1.31758C19.6321 1.3884 19.8268 1.98727 19.4741 2.33105Z" fill="#F9DA41"/>
<path d="M15.8125 2.40816C15.9986 2.88121 16.2745 3.19758 16.0807 3.64418C15.8869 4.09094 15.9849 4.67766 16.9778 4.25777L16.4154 4.55344C15.9793 4.78266 15.4698 4.41246 15.5531 3.92699L15.6606 3.3007C15.6937 3.10789 15.6297 2.91121 15.4896 2.77469L15.0345 2.33105C14.6819 1.98727 14.8766 1.3884 15.3639 1.31758L15.9927 1.22617C16.1863 1.19805 16.3537 1.07648 16.4402 0.901094L16.7214 0.331211C16.8304 0.110391 17.0424 0 17.2543 0C16.8361 0 17.01 1.20602 16.4113 1.52238C15.8125 1.83887 15.6264 1.93516 15.8125 2.40816Z" fill="#EDC932"/>
<path d="M13.9085 20C16.8485 20 18.5093 16.991 18.5093 14.4019V12.2646C18.5093 11.932 18.3743 11.6311 18.1568 11.4131C17.9388 11.1952 17.6375 11.0606 17.3054 11.0606C16.6402 11.0606 16.1015 11.5994 16.1015 12.2646V10.9811C16.1015 10.6485 15.9664 10.3477 15.7489 10.1297C15.5309 9.91174 15.2296 9.77717 14.8975 9.77717C14.5649 9.77717 14.2641 9.91174 14.0461 10.1297C13.8281 10.3477 13.6936 10.6485 13.6936 10.9811V10.8591C13.6936 10.5265 13.5585 10.2257 13.341 10.0077C13.1231 9.78971 12.8217 9.65514 12.4896 9.65514C11.8245 9.65514 11.2857 10.1944 11.2857 10.8591V6.64397C11.2852 5.97983 10.7464 5.44104 10.0817 5.44104C9.74966 5.44104 9.44829 5.57561 9.23032 5.79409C9.01235 6.01206 8.87778 6.31291 8.87778 6.64499V12.3108C8.87778 12.3108 8.82149 11.901 8.36255 11.0736C7.99415 10.4095 7.15759 10.17 6.49345 10.5384C5.82981 10.9068 5.59036 11.7434 5.95825 12.407C6.3113 13.0435 6.31231 14.4675 6.31231 14.4839V15.9526C6.31231 18.188 8.12442 20.0001 10.3598 20.0001L13.9085 20Z" fill="#FFDDCE"/>
<path d="M14.7523 19.6043C15.201 19.6043 15.6197 19.5342 16.0074 19.4061C15.4064 19.7791 14.7043 19.9999 13.9082 19.9999H10.3598C8.12434 19.9999 6.31227 18.1879 6.31227 15.9524V14.4836C6.31227 14.4674 6.3111 13.0434 5.95825 12.4067C5.59036 11.7431 5.82981 10.9067 6.49345 10.5384C6.66552 10.4428 6.84907 10.3881 7.03298 10.3715C6.6088 10.7945 6.49739 11.462 6.80184 12.0115C7.15509 12.6477 7.15587 14.0717 7.15587 14.0884V15.5567C7.15587 17.7922 8.96794 19.6043 11.2034 19.6043H14.7523V19.6043Z" fill="#FFCBBE"/>
<path d="M11.6857 12.8803C11.9066 12.8803 12.0858 12.7012 12.0858 12.4803V10.8589C12.0858 10.5268 12.2204 10.2258 12.4385 10.0078C12.5645 9.88175 12.7183 9.78386 12.8896 9.72343C12.7644 9.67929 12.6298 9.65503 12.4895 9.65503C12.1574 9.65503 11.8564 9.78964 11.6383 10.0077C11.4203 10.2258 11.2856 10.5268 11.2856 10.8589V12.4802C11.2856 12.7012 11.4647 12.8803 11.6857 12.8803Z" fill="#FFCBBE"/>
<path d="M16.5016 12.6646C16.7225 12.6646 16.9017 12.4855 16.9017 12.2645C16.9017 11.9323 17.0363 11.6314 17.2544 11.4133C17.3804 11.2873 17.5342 11.1894 17.7055 11.1289C17.5803 11.0848 17.4457 11.0605 17.3054 11.0605C16.9733 11.0605 16.6723 11.1952 16.4543 11.4132C16.2362 11.6313 16.1016 11.9323 16.1016 12.2644V12.2645C16.1015 12.4854 16.2806 12.6646 16.5016 12.6646Z" fill="#FFCBBE"/>
<path d="M14.0936 13.0024C14.3146 13.0024 14.4937 12.8233 14.4937 12.6023V10.981C14.4937 10.6489 14.6283 10.3479 14.8464 10.1298C15.9724 10.0038 15.1262 9.90593 15.2976 9.8455C15.1724 9.80136 15.0378 9.7771 14.8975 9.7771C14.5654 9.7771 14.2644 9.91171 14.0463 10.1298C13.8282 10.3479 13.6936 10.6489 13.6936 10.981V12.6023C13.6936 12.8233 13.8727 13.0024 14.0936 13.0024Z" fill="#FFCBBE"/>
<path d="M9.27772 15.2711C9.49866 15.2711 9.6778 15.092 9.6778 14.871V6.64495C9.6778 6.3128 9.81241 6.01186 10.0305 5.79377C10.1565 5.66776 10.3103 5.56987 10.4817 5.50944C10.3564 5.4653 10.2219 5.44104 10.0816 5.44104C9.74944 5.44104 9.44847 5.57565 9.23038 5.79374C9.01229 6.01182 8.87769 6.3128 8.87769 6.64491V14.871C8.87765 15.092 9.05679 15.2711 9.27772 15.2711Z" fill="#FFCBBE"/>
</svg>
