<svg width="30" height="30" viewBox="0 0 30 30" fill="none" xmlns="http://www.w3.org/2000/svg">
<path d="M13.5374 7.89747L9.02239 10.845C7.57489 11.79 7.57489 13.905 9.02239 14.85L13.5374 17.7975C14.3474 18.33 15.6824 18.33 16.4924 17.7975L20.9849 14.85C22.4249 13.905 22.4249 11.7975 20.9849 10.8525L16.4924 7.90497C15.6824 7.36497 14.3474 7.36497 13.5374 7.89747Z" stroke="#E5890A" stroke-width="1.5" stroke-linecap="round" stroke-linejoin="round"/>
<path d="M10.2226 15.8101L10.2151 19.3276C10.2151 20.2801 10.9501 21.3001 11.8501 21.6001L14.2426 22.3951C14.6551 22.5301 15.3376 22.5301 15.7576 22.3951L18.1501 21.6001C19.0501 21.3001 19.7851 20.2801 19.7851 19.3276V15.8476" stroke="#E5890A" stroke-width="1.5" stroke-linecap="round" stroke-linejoin="round"/>
<path d="M22.05 17.25V12.75" stroke="#E5890A" stroke-width="1.5" stroke-linecap="round" stroke-linejoin="round"/>
<rect opacity="0.1" width="30" height="30" rx="6" fill="#E5890A"/>
</svg>
