<svg width="16" height="16" viewBox="0 0 16 16" fill="none" xmlns="http://www.w3.org/2000/svg">
<path d="M14.3733 7.15997L13.4733 6.10664C13.3067 5.90664 13.1667 5.5333 13.1667 5.26664V4.1333C13.1667 3.42664 12.5867 2.84664 11.88 2.84664H10.7467C10.48 2.84664 10.1 2.70664 9.9 2.53997L8.84667 1.63997C8.38667 1.24664 7.63334 1.24664 7.17334 1.63997L6.10667 2.53997C5.90667 2.70664 5.53334 2.84664 5.26667 2.84664H4.11334C3.40667 2.84664 2.82667 3.42664 2.82667 4.1333V5.26664C2.82667 5.52664 2.69334 5.89997 2.52667 6.09997L1.62667 7.15997C1.24 7.62664 1.24 8.3733 1.62667 8.82664L2.52667 9.88664C2.69334 10.08 2.82667 10.46 2.82667 10.72V11.86C2.82667 12.5666 3.40667 13.1466 4.11334 13.1466H5.27334C5.53334 13.1466 5.91334 13.2866 6.11334 13.4533L7.16667 14.3533C7.62667 14.7466 8.38 14.7466 8.84 14.3533L9.89334 13.4533C10.0933 13.2866 10.4667 13.1466 10.7333 13.1466H11.8667C12.5733 13.1466 13.1533 12.5666 13.1533 11.86V10.7266C13.1533 10.46 13.2933 10.0866 13.46 9.88664L14.36 8.8333C14.7667 8.37997 14.7667 7.62664 14.3733 7.15997ZM7.5 5.41997C7.5 5.14664 7.72667 4.91997 8 4.91997C8.27334 4.91997 8.5 5.14664 8.5 5.41997V8.63997C8.5 8.9133 8.27334 9.13997 8 9.13997C7.72667 9.13997 7.5 8.9133 7.5 8.63997V5.41997ZM8 11.2466C7.63334 11.2466 7.33334 10.9466 7.33334 10.58C7.33334 10.2133 7.62667 9.9133 8 9.9133C8.36667 9.9133 8.66667 10.2133 8.66667 10.58C8.66667 10.9466 8.37334 11.2466 8 11.2466Z" fill="white"/>
</svg>
