<svg width="20" height="20" viewBox="0 0 20 20" fill="none" xmlns="http://www.w3.org/2000/svg">
<mask id="mask0_7_735" style="mask-type:luminance" maskUnits="userSpaceOnUse" x="0" y="0" width="20" height="20">
<path d="M20 0H0V20H20V0Z" fill="white"/>
</mask>
<g mask="url(#mask0_7_735)">
<path d="M15.7351 15.7391V11.5351C15.7351 9.46846 15.2904 7.89046 12.8797 7.89046C12.4276 7.87217 11.979 7.97738 11.5821 8.19479C11.1852 8.41219 10.8551 8.73359 10.6271 9.12447H10.5984V8.07713H8.31641V15.7391H10.6984V11.9391C10.6984 10.9345 10.8851 9.97313 12.1191 9.97313C13.3384 9.97313 13.3531 11.1065 13.3531 11.9965V15.7298H15.7351V15.7391Z" fill="#F9E8D9"/>
<path d="M4.44531 8.0769H6.82731V15.7396H4.44531V8.0769Z" fill="#F9E8D9"/>
<path d="M5.63417 4.2604C5.35969 4.25895 5.09097 4.33911 4.86214 4.4907C4.63331 4.64229 4.4547 4.85846 4.34899 5.11178C4.24328 5.36509 4.21524 5.6441 4.26844 5.91338C4.32163 6.18266 4.45366 6.43006 4.64775 6.62415C4.84184 6.81824 5.08923 6.95027 5.35851 7.00346C5.62779 7.05665 5.90681 7.02861 6.16012 6.9229C6.41343 6.81719 6.62961 6.63858 6.7812 6.40976C6.93279 6.18093 7.01295 5.91221 7.0115 5.63773C7.01133 5.27249 6.86616 4.92226 6.6079 4.664C6.34963 4.40574 5.99941 4.26057 5.63417 4.2604Z" fill="#F9E8D9"/>
</g>
</svg>
