<svg width="40" height="40" viewBox="0 0 40 40" fill="none" xmlns="http://www.w3.org/2000/svg">
<rect width="40" height="40" rx="4" fill="#E5890A"/>
<g clip-path="url(#clip0_340_2974)">
<path d="M11.1357 18.3158C10.216 18.3158 9.47363 19.0681 9.47363 20C9.47363 20.932 10.216 21.6842 11.1357 21.6842C12.0554 21.6842 12.7977 20.932 12.7977 20C12.7977 19.0681 12.0554 18.3158 11.1357 18.3158ZM11.1357 11.579C10.216 11.579 9.47363 12.3313 9.47363 13.2632C9.47363 14.1951 10.216 15.9474 11.1357 15.9474C12.0554 15.9474 12.7977 14.1951 12.7977 13.2632C12.7977 12.3313 12.0554 11.579 11.1357 11.579ZM11.1357 25.0527C10.216 25.0527 9.47363 25.8162 9.47363 26.7369C9.47363 27.6576 10.2271 28.4211 11.1357 28.4211C12.0443 28.4211 12.7977 27.6576 12.7977 26.7369C12.7977 25.8162 12.0554 25.0527 11.1357 25.0527ZM15.5678 27.8597H28.8642C29.4736 27.8597 29.9722 27.3544 29.9722 26.7369C29.9722 26.1193 29.4736 25.6141 28.8642 25.6141H15.5678C15.9584 25.6141 14.4598 26.1193 14.4598 26.7369C14.4598 27.3544 15.9584 27.8597 15.5678 27.8597ZM15.5678 21.1228H28.8642C29.4736 21.1228 29.9722 20.6176 29.9722 20C29.9722 19.3825 29.4736 18.8772 28.8642 18.8772H15.5678C15.9584 18.8772 14.4598 19.3825 14.4598 20C14.4598 20.6176 15.9584 21.1228 15.5678 21.1228ZM14.4598 13.2632C14.4598 13.8807 15.9584 14.386 15.5678 14.386H28.8642C29.4736 14.386 29.9722 13.8807 29.9722 13.2632C29.9722 12.6456 29.4736 12.1404 28.8642 12.1404H15.5678C15.9584 12.1404 14.4598 12.6456 14.4598 13.2632Z" fill="white"/>
</g>
<defs>
<clipPath id="clip0_340_2974">
<rect width="21.0526" height="16.8421" fill="white" transform="translate(9.47363 11.579)"/>
</clipPath>
</defs>
</svg>
