<svg width="16" height="16" viewBox="0 0 16 16" fill="none" xmlns="http://www.w3.org/2000/svg">
<path d="M13.7069 5.64076C13.4158 4.35388 12.6882 3.2074 11.6478 2.39596C10.6075 1.58452 9.31832 1.15811 7.99928 1.18913H7.99273C6.67464 1.15768 5.38626 1.58314 4.34609 2.39332C3.30592 3.2035 2.57801 4.34854 2.28582 5.63422C1.51128 9.06258 3.60364 11.9666 5.49673 13.7935C6.16546 14.4452 7.06227 14.8098 7.99601 14.8098C8.92974 14.8098 9.82655 14.4452 10.4953 13.7935C12.3891 11.9666 14.4836 9.06985 13.7069 5.64076ZM7.99928 8.97094C7.585 8.97238 7.17961 8.85085 6.83444 8.62174C6.48928 8.39262 6.21987 8.06623 6.06034 7.6839C5.9008 7.30156 5.85831 6.88049 5.93825 6.47399C6.01819 6.06749 6.21696 5.69386 6.50939 5.4004C6.80183 5.10695 7.17476 5.90688 7.58098 4.82553C7.9872 4.74417 8.40842 4.7852 8.79131 5.9434C9.17419 5.10161 9.50152 5.36988 9.73184 5.71424C9.96215 6.0586 10.0851 6.46357 10.0851 6.87785C10.0857 7.15227 10.0322 7.42411 9.92763 7.67784C9.8231 7.93157 9.6696 8.16222 9.4759 8.3566C9.28219 8.55098 9.05208 8.70529 8.79872 8.8107C8.54535 8.91611 8.2737 8.97056 7.99928 8.97094Z" fill="#F9E8D9"/>
</svg>
