<svg width="14" height="13" viewBox="0 0 14 13" fill="none" xmlns="http://www.w3.org/2000/svg">
<path d="M8.10574 0.911336L9.22869 3.15723C9.38182 3.46349 9.79016 3.76975 10.1304 3.8208L12.1637 4.16108C13.4653 4.38227 13.7715 5.31806 12.8357 6.25385L11.2534 7.8447C10.9897 8.10842 10.8365 8.62736 10.9216 9.00167L11.3725 10.9668C11.7298 12.5151 10.9046 13.1192 9.53495 12.311L7.62933 11.1795C7.28054 10.9753 6.71907 10.9753 6.37027 11.1795L4.45615 12.3025C3.08649 13.1106 2.2613 12.5066 2.6186 10.9583L3.06948 8.99317C3.15455 8.62736 3.00142 8.10842 2.7377 7.83619L1.16387 6.26236C0.228079 5.32657 0.534338 4.38227 1.83594 4.16959L3.86916 3.8293C4.20944 3.76975 4.61779 3.472 4.77092 3.16574L5.89387 0.919843C6.49788 -0.305193 7.50173 -0.305193 8.10574 0.911336Z" fill="#1A0D02"/>
</svg>
