<svg width="18" height="18" viewBox="0 0 18 18" fill="none" xmlns="http://www.w3.org/2000/svg">
<path d="M13.1473 5.8275C13.0948 5.82 13.0423 5.82 12.9898 5.8275C11.8273 5.79 10.9048 4.8375 10.9048 3.6675C10.9048 2.475 11.8723 1.5 13.0723 1.5C14.2648 1.5 15.2398 2.4675 15.2398 3.6675C15.2323 4.8375 14.3098 5.79 13.1473 5.8275Z" fill="#1A0D02"/>
<path d="M15.5927 11.025C14.7527 11.5875 13.5752 11.7975 12.4877 11.655C12.7727 11.04 12.9227 10.3575 12.9302 9.6375C12.9302 8.8875 12.7652 8.175 12.4502 7.5525C13.5602 7.4025 14.7377 7.6125 15.5852 8.175C16.7702 8.955 16.7702 10.2375 15.5927 11.025Z" fill="#1A0D02"/>
<path d="M4.83012 5.8275C4.88262 5.82 4.93512 5.82 4.98762 5.8275C6.15012 5.79 7.07262 4.8375 7.07262 3.6675C7.07262 2.4675 6.10512 1.5 4.90512 1.5C3.71262 1.5 2.74512 2.4675 2.74512 3.6675C2.74512 4.8375 3.66762 5.79 4.83012 5.8275Z" fill="#1A0D02"/>
<path d="M4.91234 9.6375C4.91234 10.365 5.06984 11.055 5.35484 11.6775C4.29734 11.79 3.19484 11.565 2.38484 11.0325C1.19984 10.245 1.19984 8.9625 2.38484 8.175C3.18734 7.635 4.31984 7.4175 5.38484 7.5375C5.07734 8.1675 4.91234 8.88 4.91234 9.6375Z" fill="#1A0D02"/>
<path d="M9.0901 11.9025C9.0301 11.895 8.9626 11.895 8.8951 11.9025C7.5151 11.8575 6.4126 10.725 6.4126 9.33C6.4201 7.905 7.5676 6.75 9.0001 6.75C10.4251 6.75 11.5801 7.905 11.5801 9.33C11.5726 10.725 10.4776 11.8575 9.0901 11.9025Z" fill="#1A0D02"/>
<path d="M6.6526 13.455C5.5201 14.2125 5.5201 15.4575 6.6526 16.2075C7.9426 17.07 10.0576 17.07 11.3476 16.2075C12.4801 15.45 12.4801 14.205 11.3476 13.455C10.0651 12.5925 7.9501 12.5925 6.6526 13.455Z" fill="#1A0D02"/>
</svg>
