<svg width="18" height="18" viewBox="0 0 18 18" fill="none" xmlns="http://www.w3.org/2000/svg">
<path d="M12.6223 11.73C13.1248 11.4 13.7848 11.76 13.7848 12.36V13.3275C13.7848 14.28 13.0423 15.3 12.1498 15.6L9.75734 16.395C9.33734 16.5375 8.65484 16.5375 8.24234 16.395L5.84984 15.6C5.94984 15.3 4.21484 14.28 4.21484 13.3275V12.3525C4.21484 11.76 4.87484 11.4 5.36984 11.7225L6.91484 12.7275C7.50734 13.125 8.25734 13.32 9.00734 13.32C9.75734 13.32 10.5073 13.125 11.0998 12.7275L12.6223 11.73Z" fill="#1A0D02"/>
<path d="M15.9851 4.845L10.4926 1.8975C9.68264 1.365 8.34764 1.365 7.53764 1.8975L3.02264 4.845C1.57514 5.7825 1.57514 7.905 3.02264 8.85L4.22264 9.63L7.53764 11.79C8.34764 12.3225 9.68264 12.3225 10.4926 11.79L13.7851 9.63L14.8126 8.955V11.25C14.8126 11.5575 15.0676 11.8125 15.3751 11.8125C15.6826 11.8125 15.9376 11.5575 15.9376 11.25V7.56C16.2376 6.5925 15.9301 5.4675 15.9851 4.845Z" fill="#1A0D02"/>
</svg>
