<svg width="34" height="38" viewBox="0 0 34 38" fill="none" xmlns="http://www.w3.org/2000/svg">
<rect y="4" width="34" height="34" rx="17" fill="#EFF0F1"/>
<circle cx="26" cy="6" r="4.5" fill="#EE2527" stroke="white" stroke-width="3"/>
<path d="M17.5178 12.5463C14.6215 12.5463 12.2678 15.9 12.2678 17.7963V20.325C12.2678 20.8588 12.0403 21.6725 11.769 22.1275L10.7628 23.7988C10.1415 24.8313 10.5703 25.9775 11.7078 26.3625C15.479 27.6225 19.5478 27.6225 23.319 26.3625C24.3778 26.0125 24.8415 24.7613 24.264 23.7988L23.2578 22.1275C22.9953 21.6725 22.7678 20.8588 22.7678 20.325V17.7963C22.7678 15.9088 20.4053 12.5463 17.5178 12.5463Z" stroke="#1A0D02" stroke-width="1.5" stroke-miterlimit="10" stroke-linecap="round"/>
<path d="M19.1359 12.8C18.8647 12.7213 18.5847 12.66 18.2959 12.625C17.4559 12.52 16.6509 12.5813 15.8984 12.8C16.1522 12.1525 16.7822 11.6975 17.5172 11.6975C18.2522 11.6975 18.8822 12.1525 19.1359 12.8Z" stroke="#1A0D02" stroke-width="1.5" stroke-miterlimit="10" stroke-linecap="round" stroke-linejoin="round"/>
<path d="M20.1426 26.6775C20.1426 28.1212 18.9613 29.3025 17.5176 29.3025C16.8001 29.3025 16.1351 29.005 15.6626 28.5325C15.1901 28.06 14.8926 27.395 14.8926 26.6775" stroke="#1A0D02" stroke-width="1.5" stroke-miterlimit="10"/>
</svg>
