<svg width="24" height="24" viewBox="0 0 24 24" fill="none" xmlns="http://www.w3.org/2000/svg">
<g clip-path="url(#clip0_697_12004)">
<path d="M2.17804 0.0150146C2.20294 0.0130005 2.224 0 2.25 0H12.9999C14.6539 0 15.9999 1.34601 15.9999 3V3.99994C15.9999 4.552 15.5521 5.00006 15 5.00006C14.4479 5.00006 14.0001 4.552 14.0001 3.99994V3C14.0001 2.44904 13.5511 2.00006 12.9999 2.00006H8.341L8.64606 2.10205C9.45593 2.38202 9.99994 3.14502 9.99994 3.99994V18.9999H12.9999C13.5511 18.9999 14.0001 18.551 14.0001 18V15.9999C14.0001 15.4481 14.4479 15 15 15C15.5521 15 15.9999 15.4481 15.9999 15.9999V18C15.9999 19.654 14.6539 21 12.9999 21H9.99994V21.9999C9.99994 23.103 9.10309 24 8.00006 24C7.78601 24 7.58295 23.9691 7.36304 23.9009L1.35498 21.8979C0.544006 21.618 0 20.855 0 20.0001V2.00006C0 0.834045 1.00507 -0.0800171 2.17804 0.0150146Z" fill="white"/>
<path d="M13.2931 9.29316L17.293 5.29322C17.579 5.00721 18.009 4.92115 18.3831 5.07624C18.756 5.23114 18.9999 5.59626 18.9999 6.00019V9.00019H23.0001C23.5519 9.00019 24 9.44825 24 10.0001C24 10.5522 23.5519 11.0002 23.0001 11.0002H18.9999V14.0002C18.9999 14.4042 18.756 14.7691 18.3831 14.9242C18.009 15.0791 17.579 14.9932 17.293 14.7072L13.2931 10.7071C12.902 10.3162 12.902 9.68427 13.2931 9.29316Z" fill="white"/>
</g>
<defs>
<clipPath id="clip0_697_12004">
<rect width="24" height="24" fill="white" transform="matrix(-1 0 0 1 24 0)"/>
</clipPath>
</defs>
</svg>
