<svg width="26" height="26" viewBox="0 0 26 26" fill="none" xmlns="http://www.w3.org/2000/svg">
<path d="M22.6391 6.14961L16.5961 0.101562H4.33242C3.79414 0.101562 3.35742 0.538281 3.35742 1.07656V18.3777H22.6391V6.14961Z" fill="white"/>
<path d="M16.5957 5.17461C16.5957 5.71289 17.0324 6.14961 17.5707 6.14961H22.6438L16.5957 0.101562V5.17461Z" fill="#DBDFE0"/>
<path d="M3.36328 18.3728V24.9235C3.36328 25.4618 3.8 25.8985 4.33828 25.8985H21.6699C22.2082 25.8985 22.6449 25.4618 22.6449 24.9235V18.3728H3.36328ZM8.05547 17.2657C7.7457 17.2657 7.44609 17.1489 7.17188 16.9204C6.70977 16.5345 6.67422 16.1079 6.71992 15.8185C6.94336 14.5134 9.3707 13.32 10.7824 12.731C11.5492 10.8114 12.2145 8.55166 12.6258 6.85557C11.8031 5.09346 11.5137 3.84932 11.7676 3.14346C11.8945 2.79307 12.1535 2.56455 12.5191 2.4833L12.5699 2.47314L12.6207 2.47822C12.6613 2.4833 13.0219 2.53916 13.3164 2.93525C13.6973 3.45322 13.7836 4.29111 13.5703 5.42861C13.5094 5.75361 13.4078 6.2208 13.2758 6.77939C14.0273 8.34346 15.0836 10.07 15.9469 11.2685C16.668 11.1669 17.3535 11.1313 17.9324 11.1923C19.0141 11.304 19.2426 11.7763 19.2832 12.0505C19.3441 12.4517 19.0496 12.8681 18.5469 13.0813C17.8512 13.3759 16.7137 13.2997 15.7895 12.1013C15.7488 12.0505 15.7082 11.9946 15.6676 11.9388C14.4793 12.1368 13.098 12.5126 11.6965 13.0356C11.5492 13.0915 11.407 13.1474 11.2648 13.2032C10.3152 15.529 9.38594 16.8645 8.49727 17.1845C8.35508 17.2403 8.20273 17.2657 8.05547 17.2657ZM10.4422 13.5536C8.42617 14.4626 7.42578 15.3614 7.33437 15.9251C7.31406 16.047 7.31406 16.2349 7.57305 16.4481C7.81172 16.6462 8.04023 16.697 8.29414 16.6056C9 16.3517 9.75156 15.1329 10.4422 13.5536ZM16.3836 11.8423C17.0691 12.6497 17.841 12.7157 18.3082 12.5126C18.552 12.411 18.6891 12.2384 18.6738 12.1419C18.6586 12.0403 18.4301 11.8677 17.8715 11.8118C17.4551 11.7712 16.9523 11.7813 16.3836 11.8423ZM13.0523 7.70869C12.7426 8.90205 12.3211 10.3392 11.8285 11.7306C11.7422 11.9692 11.6609 12.1978 11.5746 12.4212C12.6766 12.0149 14.007 11.6188 15.2715 11.3802C14.591 10.4103 13.7531 9.06455 13.0523 7.70869ZM12.5953 3.11299C12.4785 3.15361 12.4023 3.22978 12.3566 3.36182C12.1789 3.84932 12.4125 4.76846 12.8645 5.85518C12.9051 5.66221 12.9406 5.48447 12.9711 5.32197C13.2047 4.05752 12.9812 3.51416 12.8238 3.30596C12.7375 3.18916 12.6461 3.1333 12.5953 3.11299Z" fill="#F1786B"/>
<path d="M17.591 21.7444H16.4281V20.5612H17.591C17.8094 20.5612 17.9871 20.3835 17.9871 20.1651C17.9871 19.9468 17.8094 19.769 17.591 19.769H16.0371C15.8187 19.769 15.641 19.9468 15.641 20.1651V24.1058C15.641 24.3241 15.8187 24.5019 16.0371 24.5019C16.2555 24.5019 16.4332 24.3241 16.4332 24.1058V22.5315H17.5961C17.8145 22.5315 17.9922 22.3538 17.9922 22.1354C17.9871 21.9171 17.8094 21.7444 17.591 21.7444ZM9.21211 19.7741H8.40977C8.19141 19.7741 8.01367 19.9519 8.01367 20.1702V24.1108C8.01367 24.3292 8.19141 24.5069 8.40977 24.5069C8.62813 24.5069 8.80586 24.3292 8.80586 24.1108V22.5366H9.21211C9.97383 22.5366 10.5934 21.9171 10.5934 21.1554C10.5934 20.3937 9.97383 19.7741 9.21211 19.7741ZM9.21211 21.7444H8.80586V20.5612H9.21211C9.53711 20.5612 9.80117 20.8253 9.80117 21.1503C9.80117 21.4753 9.53711 21.7444 9.21211 21.7444ZM12.6145 19.7741H11.5785C11.3602 19.7741 11.1824 19.9519 11.1824 20.1702V24.1108C11.1824 24.3292 11.3602 24.5069 11.5785 24.5069H12.6145C13.9195 24.5069 14.9809 23.4456 14.9809 22.1405C14.9809 20.8304 13.9195 19.7741 12.6145 19.7741ZM12.6145 23.7097H11.9746V20.5562H12.6145C13.4828 20.5562 14.1887 21.262 14.1887 22.1304C14.1937 23.0038 13.4828 23.7097 12.6145 23.7097Z" fill="#EFF3F5"/>
</svg>
