<svg width="32" height="32" viewBox="0 0 32 32" fill="none" xmlns="http://www.w3.org/2000/svg">
<path d="M2.70671 24.4403C2.70671 24.9203 2.81337 25.4137 3.04004 25.8937C3.26671 26.3737 3.56004 26.827 3.94671 27.2537C4.60004 27.9737 5.32004 28.4937 6.13337 28.827C6.93337 29.1603 7.80004 29.3337 8.73337 29.3337C10.0934 29.3337 11.5467 29.0137 13.08 28.3603C14.6134 27.707 16.1467 26.827 17.6667 25.7203C19.2 24.6003 20.6534 23.3603 22.04 21.987C23.4134 20.6003 24.6534 19.147 25.76 17.627C26.8534 16.107 27.7334 14.587 28.3734 13.0803C29.0134 11.5603 29.3334 10.107 29.3334 8.72033C29.3334 7.81366 29.1734 6.94699 28.8534 6.14699C28.5334 5.33366 28.0267 4.58699 27.32 3.92033C26.4667 3.08033 25.5334 2.66699 24.5467 2.66699C24.1734 2.66699 23.8 2.74699 23.4667 2.90699C23.12 3.06699 22.8134 3.30699 22.5734 3.65366L19.48 8.01366C19.24 8.34699 19.0667 8.65366 18.9467 8.94699C18.8267 9.22699 18.76 9.50699 18.76 9.76033C18.76 10.0803 18.8534 10.4003 19.04 10.707C19.2134 11.0137 19.4667 11.3337 19.7867 11.6537L20.8 12.707C20.9467 12.8537 21.0134 13.027 21.0134 13.2403C21.0134 13.347 21 13.4403 20.9734 13.547C20.9334 13.6537 20.8934 13.7337 20.8667 13.8137C20.6267 14.2537 20.2134 14.827 19.6267 15.5203C19.0267 16.2137 18.3867 16.9203 17.6934 17.627C16.9734 18.3337 16.28 18.987 15.5734 19.587C14.88 20.1737 14.3067 20.5737 13.8534 20.8137C13.7867 20.8403 13.7067 20.8803 13.6134 20.9203C13.5067 20.9603 13.4 20.9737 13.28 20.9737C13.0534 20.9737 12.88 20.8937 12.7334 20.747L11.72 19.747C11.3867 19.4137 11.0667 19.1603 10.76 19.0003C10.4534 18.8137 10.1467 18.7203 9.81337 18.7203C9.56004 18.7203 9.29337 18.7737 9.00004 18.8937C8.70671 19.0137 8.40004 19.187 8.06671 19.4137L3.65337 22.547C3.30671 22.787 3.06671 23.067 2.92004 23.4003C2.78671 23.7337 2.70671 24.067 2.70671 24.4403Z" stroke="white" stroke-width="3" stroke-miterlimit="10"/>
</svg>
