<svg width="26" height="26" viewBox="0 0 26 26" fill="none" xmlns="http://www.w3.org/2000/svg">
<g clip-path="url(#clip0_874_15543)">
<path d="M6.75 0.5C5.89062 0.5 5.1875 1.20312 5.1875 2.0625V23.9375C5.1875 24.7969 5.89062 25.5 6.75 25.5H22.375C23.2344 25.5 23.9375 24.7969 23.9375 23.9375V6.75L17.6875 0.5H6.75Z" fill="white"/>
<path d="M19.25 6.75H23.9375L17.6875 0.5V5.1875C17.6875 6.04688 18.3906 6.75 19.25 6.75Z" fill="#B0B7BD"/>
<path d="M23.9375 11.4375L19.25 6.75H23.9375V11.4375Z" fill="#CAD1D8"/>
<path d="M20.8125 20.8125C20.8125 21.2422 20.4609 21.5938 20.0312 21.5938H2.84375C2.41406 21.5938 2.0625 21.2422 2.0625 20.8125V13C2.0625 12.5703 2.41406 12.2188 2.84375 12.2188H20.0312C20.4609 12.2188 20.8125 12.5703 20.8125 13V20.8125Z" fill="#A066AA"/>
<path d="M5.03125 15.3021C5.03125 15.0959 5.19297 14.8701 5.45547 14.8701H6.89922C7.71094 14.8701 8.44219 15.4139 8.44219 16.4568C8.44219 17.4443 7.71094 17.9936 6.89922 17.9936H5.85469V18.8186C5.85469 19.0943 5.68125 19.2498 5.45547 19.2498C5.24922 19.2498 5.03125 19.0943 5.03125 18.8186V15.3021ZM5.85469 15.6576V17.2131H6.89844C7.31641 17.2131 7.64766 16.8443 7.64766 16.4568C7.64766 16.0193 7.31641 15.6576 6.89844 15.6576H5.85469ZM9.23828 15.3646C9.23828 15.1389 9.28828 14.9209 9.61328 14.9209C9.8375 14.9209 9.88828 14.9771 10.0562 15.1389L12.1234 17.7256V15.3021C12.1234 15.0959 12.3039 14.8701 12.5172 14.8701C12.7422 14.8701 12.9602 15.0959 12.9602 15.3021V18.8186C12.9602 19.0943 12.7914 19.199 12.6289 19.2498C12.4109 19.2498 12.3039 19.1998 12.1234 19.0318L10.0562 16.4076V18.8193C10.0562 19.0951 9.8875 19.2506 9.6625 19.2506C9.4375 19.2506 9.2375 19.0951 9.2375 18.8193V15.3646H9.23828ZM17.6594 18.7693C17.2156 19.1373 16.6719 19.2943 16.1227 19.2943C14.8102 19.2943 13.8797 18.5443 13.8797 17.0576C13.8797 15.7959 14.8609 14.8154 16.1781 14.8154C16.6719 14.8154 17.2148 14.9842 17.6023 15.3654C17.9836 15.7396 17.4336 16.2959 17.0594 15.9654C16.8281 15.7396 16.5031 15.5717 16.1781 15.5717C15.4227 15.5717 14.6922 16.1771 14.6922 17.0576C14.6922 17.9826 15.3039 18.5443 16.1227 18.5443C16.5031 18.5443 16.8281 18.4318 17.0594 18.2631V17.4959H16.1227C15.5664 17.4959 15.6227 16.7326 16.1227 16.7326H17.3719C17.6031 16.7326 17.8148 16.9084 17.8148 17.1021V18.4326C17.8148 18.5443 17.7656 18.6498 17.6594 18.7693Z" fill="white"/>
<path d="M20.0312 21.5938H5.1875V22.375H20.0312C20.4609 22.375 20.8125 22.0234 20.8125 21.5938V20.8125C20.8125 21.2422 20.4609 21.5938 20.0312 21.5938Z" fill="#CAD1D8"/>
</g>
<defs>
<clipPath id="clip0_874_15543">
<rect width="25" height="25" fill="white" transform="translate(0.5 0.5)"/>
</clipPath>
</defs>
</svg>
