<svg width="20" height="20" viewBox="0 0 20 20" fill="none" xmlns="http://www.w3.org/2000/svg">
<path d="M17.5674 7.14999V12.85C17.5674 13.7833 17.0674 14.65 16.2591 15.125L11.3091 17.9833C10.5008 18.45 9.50078 18.45 8.68411 17.9833L3.73411 15.125C2.92578 14.6583 2.42578 13.7916 2.42578 12.85V7.14999C2.42578 6.21665 2.92578 5.34995 3.73411 4.87495L8.68411 2.01663C9.49245 1.54996 10.4924 1.54996 11.3091 2.01663L16.2591 4.87495C17.0674 5.34995 17.5674 6.20832 17.5674 7.14999Z" stroke="#E5890A" stroke-width="1.5" stroke-linecap="round" stroke-linejoin="round"/>
<path d="M10.0003 9.16664C11.0726 9.16664 11.9419 8.29731 11.9419 7.22496C11.9419 6.1526 11.0726 5.28333 10.0003 5.28333C8.92791 5.28333 8.05859 6.1526 8.05859 7.22496C8.05859 8.29731 8.92791 9.16664 10.0003 9.16664Z" stroke="#E5890A" stroke-width="1.5" stroke-linecap="round" stroke-linejoin="round"/>
<path d="M13.3327 13.8833C13.3327 12.3833 11.841 11.1666 9.99935 11.1666C8.15768 11.1666 6.66602 12.3833 6.66602 13.8833" stroke="#E5890A" stroke-width="1.5" stroke-linecap="round" stroke-linejoin="round"/>
</svg>
