<svg width="20" height="20" viewBox="0 0 20 20" fill="none" xmlns="http://www.w3.org/2000/svg">
<path d="M16.6673 6.87496V15C16.6673 17.5 15.1757 18.3333 13.334 18.3333H6.66732C4.82565 18.3333 3.33398 17.5 3.33398 15V6.87496C3.33398 4.16663 4.82565 3.54163 6.66732 3.54163C6.66732 4.05829 6.87563 4.52496 7.2173 4.86662C7.55896 5.20829 8.02565 5.41663 8.54232 5.41663H11.459C12.4923 5.41663 13.334 4.57496 13.334 3.54163C15.1757 3.54163 16.6673 4.16663 16.6673 6.87496Z" stroke="#E5890A" stroke-width="1.5" stroke-linecap="round" stroke-linejoin="round"/>
<path d="M13.3327 3.54163C13.3327 4.57496 12.491 5.41663 11.4577 5.41663H8.54102C8.02435 5.41663 7.55766 5.20829 7.21599 4.86662C6.87433 4.52496 6.66602 4.05829 6.66602 3.54163C6.66602 2.50829 7.50768 1.66663 8.54102 1.66663H11.4577C11.9743 1.66663 12.441 1.87496 12.7827 2.21663C13.1244 2.5583 13.3327 3.02496 13.3327 3.54163Z" stroke="#E5890A" stroke-width="1.5" stroke-linecap="round" stroke-linejoin="round"/>
<path d="M6.66602 10.8334H9.99935" stroke="#E5890A" stroke-width="1.5" stroke-linecap="round" stroke-linejoin="round"/>
<path d="M6.66602 14.1666H13.3327" stroke="#E5890A" stroke-width="1.5" stroke-linecap="round" stroke-linejoin="round"/>
</svg>
