<svg width="20" height="20" viewBox="0 0 20 20" fill="none" xmlns="http://www.w3.org/2000/svg">
<path d="M9.99935 12.0833C11.1499 12.0833 12.0827 11.1506 12.0827 9.99996C12.0827 8.84937 11.1499 7.91663 9.99935 7.91663C8.84876 7.91663 7.91602 8.84937 7.91602 9.99996C7.91602 11.1506 8.84876 12.0833 9.99935 12.0833Z" stroke="#E5890A" stroke-width="1.5" stroke-miterlimit="10" stroke-linecap="round" stroke-linejoin="round"/>
<path d="M15.416 7.91663V12.0833" stroke="#E5890A" stroke-width="1.5" stroke-miterlimit="10" stroke-linecap="round" stroke-linejoin="round"/>
<path d="M7.50065 15C7.50065 15.625 7.32566 16.2166 7.01733 16.7166C6.44233 17.6833 5.38398 18.3333 4.16732 18.3333C2.95065 18.3333 1.89231 17.6833 1.31731 16.7166C1.00897 16.2166 0.833984 15.625 0.833984 15C0.833984 13.1583 2.32565 11.6666 4.16732 11.6666C6.00898 11.6666 7.50065 13.1583 7.50065 15Z" stroke="#E5890A" stroke-width="1.5" stroke-miterlimit="10" stroke-linecap="round" stroke-linejoin="round"/>
<path d="M2.86914 14.9995L3.69413 15.8245L5.46914 14.1829" stroke="#E5890A" stroke-width="1.5" stroke-linecap="round" stroke-linejoin="round"/>
<path d="M1.66602 12.75V7.50004C1.66602 4.58337 3.33268 3.33337 5.83268 3.33337H14.166C16.666 3.33337 18.3327 4.58337 18.3327 7.50004V12.5C18.3327 15.4167 16.666 16.6667 14.166 16.6667H7.08268" stroke="#E5890A" stroke-width="1.5" stroke-miterlimit="10" stroke-linecap="round" stroke-linejoin="round"/>
</svg>
