<svg width="21" height="17" viewBox="0 0 21 17" fill="none" xmlns="http://www.w3.org/2000/svg">
<path d="M20.8416 2.20004C20.2981 3.03989 19.6064 3.7707 18.8012 4.35571V4.87314C18.7898 7.92282 17.6441 10.8558 15.5931 13.0856C14.5309 14.3021 13.2155 15.2638 11.7419 15.9013C10.2683 16.5387 8.67352 16.8359 7.07281 16.7714C4.83824 16.7806 2.65067 16.1207 0.784119 14.8745C1.10808 15.922 1.43435 15.9516 1.76148 15.9631C3.61716 15.9782 5.42023 14.3379 6.86145 13.152C6.00118 13.1297 5.16918 12.8358 4.48135 12.3112C3.79245 11.8069 3.28509 11.0878 3.0367 10.2636C3.28918 10.3127 3.54495 10.3423 3.80182 10.3522C4.17552 10.3387 4.54636 10.2808 5.90671 10.1795C3.98155 9.98424 3.14967 9.4748 2.54844 8.73527C1.92048 8.00018 1.58018 7.05694 1.59204 6.08432V6.0409C2.16211 6.37128 2.80558 6.54933 3.46206 6.55834C2.87943 6.19316 2.4031 5.67727 2.08198 5.06362C1.76087 4.44998 1.60654 3.7607 1.63484 3.06656C1.63575 2.33806 1.82584 1.62267 2.18597 0.992401C3.19295 2.30455 4.47299 3.3751 5.93475 4.12769C7.39652 4.88029 9.004 5.29637 10.6425 5.34627C10.574 5.03528 10.5446 4.71672 10.5552 4.39824C10.5473 3.84684 10.6485 3.29944 10.8529 2.78844C11.0573 2.27745 11.3607 1.81324 11.7451 1.42331C12.1295 1.03337 12.5871 0.725625 13.0908 0.518293C13.5946 0.310961 14.1342 0.208255 14.6778 0.216254C15.2389 0.210617 15.7948 0.326941 16.3079 0.557405C16.821 0.787868 17.2796 1.12713 17.6527 1.55236C18.5882 1.37738 19.4833 1.02703 20.2922 0.51927C20.1566 1.01137 19.9251 1.4709 19.6114 1.87068C19.2977 2.27047 18.9082 2.60239 18.4658 2.84682C19.2891 2.77492 20.0934 2.55595 20.8416 2.20004Z" fill="white"/>
</svg>
