<svg width="24" height="24" viewBox="0 0 24 24" fill="none" xmlns="http://www.w3.org/2000/svg">
<g clip-path="url(#clip0_83_327)">
<path d="M17.4188 21.3844C15.825 22.3079 13.9735 22.8329 12 22.8329C6.0188 22.8329 1.16724 17.9813 1.16724 12C1.16724 6.0188 6.0188 1.16724 12 1.16724C13.9735 1.16724 15.825 1.69692 17.4188 2.61567C14.1797 4.48599 12 7.98755 12 12C12 16.0125 14.1797 19.5094 17.4188 21.3844Z" fill="#E5890A"/>
<path d="M22.8516 6.86729C21.8719 4.79073 20.3203 3.04698 18.3656 1.82354C15.6469 0.12667 12.4266 -0.412392 9.30468 0.309483C6.18281 1.02667 3.52499 2.92042 1.82812 5.63917C0.126556 8.35792 -0.412506 11.5735 0.309369 14.7001C1.03124 17.822 2.92499 20.4798 5.63906 22.1767C7.55156 23.372 9.74531 24.0048 11.9906 24.0048H12.1359C14.3719 23.9767 16.5469 23.3298 18.4312 22.1392C18.9797 21.7923 19.1391 21.0704 18.7922 20.522C18.4453 19.9735 17.7234 19.8142 17.175 20.161C15.6609 21.122 13.9078 21.6423 12.1078 21.6657C10.2609 21.6892 8.45624 21.1782 6.88124 20.1985C4.69218 18.8298 3.16874 16.6923 2.59218 14.1798C2.01093 11.6673 2.44687 9.07979 3.81562 6.89073C6.63749 2.37667 12.6094 0.998545 17.1234 3.82042C18.6984 4.8048 19.9453 6.20636 20.7328 7.87511C21.5016 9.50167 21.8016 11.3064 21.6 13.0876C21.5297 13.7298 21.9891 14.311 22.6359 14.3814C23.2781 14.4517 23.8594 13.9923 23.9297 13.3454C24.1781 11.1282 23.8031 8.88761 22.8516 6.86729Z" fill="#1A0D02"/>
<path d="M15.8719 7.93145L10.2235 13.5846L8.12817 11.4893C7.6688 11.0299 6.92817 11.0299 6.4688 11.4893C6.00942 11.9486 6.00942 12.6893 6.4688 13.1486L9.3938 16.0736C9.62349 16.3033 9.92349 16.4158 10.2235 16.4158C10.5235 16.4158 10.8235 16.3033 11.0532 16.0736L17.5313 9.59082C17.9907 9.13145 17.9907 8.39082 17.5313 7.93145C17.0719 7.47207 16.3313 7.47207 15.8719 7.93145Z" fill="#1A0D02"/>
</g>
<defs>
<clipPath id="clip0_83_327">
<rect width="24" height="24" fill="white"/>
</clipPath>
</defs>
</svg>
