<svg width="9" height="16" viewBox="0 0 9 16" fill="none" xmlns="http://www.w3.org/2000/svg">
<path fill-rule="evenodd" clip-rule="evenodd" d="M7.76535 7.98065H5.62981V15.7368H2.44354V7.98065H0.944733V5.24376H2.44354V3.45667C2.41109 3.02381 2.47125 2.58895 2.61991 2.18187C2.76856 1.77479 3.00218 1.40511 3.30479 1.09815C3.60739 0.791183 3.97182 0.55419 4.37312 0.403398C4.77441 0.252607 5.2031 0.191578 5.62981 0.224492H7.98808V2.88253H6.30498C6.20932 2.88048 6.11435 2.89938 6.02654 2.93793C5.93874 2.97648 5.86016 3.03379 5.79616 3.10594C5.73216 3.17809 5.68425 3.26339 5.6557 3.35602C5.62714 3.44866 5.61861 3.54645 5.63069 3.64273V5.23755H8.02738L7.76535 7.98065Z" fill="#06042E"/>
</svg>
