<svg width="50" height="50" viewBox="0 0 50 50" fill="none" xmlns="http://www.w3.org/2000/svg">
<g clip-path="url(#clip0_275_4777)">
<path d="M45.8334 36.4584C41.6667 36.4584 33.3334 41.7313 29.1667 41.7313C25 41.7313 20.3125 38.5417 20.3125 38.5417C20.3125 38.5417 25.925 39.5834 29.1667 39.5834C32.4084 39.5834 33.3334 38.4771 33.3334 36.9792C33.3334 33.3334 27.1417 32.7667 24.0084 32.2896C20.9334 30.5771 17.6813 29.5125 12.5875 29.0834C12.5584 29.3792 12.5104 29.675 12.4271 29.9688L8.2417 44.7188C12.9834 46.875 22.8 50 27.0834 50C33.3334 50 50 41.6667 50 39.5834C50 37.5 47.9167 36.4584 45.8334 36.4584Z" fill="#FFCC80"/>
<path d="M7.29167 45.8333H1.5625C0.7 45.8333 0 45.1333 0 44.2708V26.5625C0 25.7 0.7 25 1.5625 25C8.86458 25 12.2667 27.5333 12.4063 27.6417C12.9104 28.0271 13.1333 28.6792 12.9667 29.2917L8.8 44.6792C8.61458 45.3604 7.99792 45.8333 7.29167 45.8333Z" fill="#607D8B"/>
<path d="M49.9188 11.0125C49.7334 10.4563 49.2542 10.0542 48.673 9.96459L40.5 8.71459L36.8292 0.897925C36.3167 -0.197909 34.5146 -0.197909 34.0021 0.897925L30.3334 8.71668L22.1605 9.96668C21.5813 10.0542 21.1 10.4583 20.9146 11.0146C20.7271 11.5708 20.8688 12.1833 21.2771 12.6021L27.2375 18.7104L25.8271 27.3542C25.7313 27.9438 25.9792 28.5375 26.4709 28.8833C26.9584 29.2292 27.6042 29.2604 28.1271 28.9729L35.4167 24.9417L42.7063 28.9729C42.9417 29.1021 43.2021 29.1667 43.4625 29.1667C43.7771 29.1667 44.0938 29.0708 44.3625 28.8813C44.8521 28.5354 45.1 27.9417 45.0063 27.3521L43.5959 18.7083L49.5563 12.6C49.9646 12.1813 50.1063 11.5688 49.9188 11.0125Z" fill="#FFC107"/>
</g>
<defs>
<clipPath id="clip0_275_4777">
<rect width="50" height="50" fill="white"/>
</clipPath>
</defs>
</svg>
