<svg width="50" height="50" viewBox="0 0 50 50" fill="none" xmlns="http://www.w3.org/2000/svg">
<path d="M48.6728 30.798L40.4999 29.548L36.8311 21.7313C36.3165 20.6355 34.5186 20.6355 34.004 21.7313L30.3353 29.548L22.1624 30.798C20.8999 30.9917 20.3957 32.5271 21.2811 33.4334L27.2394 39.5417L25.829 48.1855C25.6186 49.4688 26.9874 50.4375 28.1269 49.8042L35.4186 45.773L42.7103 49.8042C43.8353 50.4292 45.2207 49.4834 45.0082 48.1855L43.5978 39.5417L49.5561 33.4334C50.4394 32.5271 49.9332 30.9917 48.6728 30.798Z" fill="#FFC107"/>
<path d="M24.1727 27.3521L22.7623 18.7083L28.7207 12.6C29.6061 11.6938 29.0977 10.1563 27.8394 9.96459L19.6665 8.71459L15.9977 0.897925C15.4832 -0.197909 13.6852 -0.197909 13.1707 0.897925L9.49982 8.71667L1.32691 9.96667C0.0644059 10.1604 -0.439761 11.6958 0.445656 12.6021L6.40399 18.7104L4.99357 27.3542C4.78316 28.6375 6.14982 29.6021 7.29149 28.9729L14.5832 24.9417L21.8748 28.9729C22.9998 29.5958 24.3852 28.6521 24.1727 27.3521Z" fill="#FFC107"/>
</svg>
