<svg width="50" height="50" viewBox="0 0 50 50" fill="none" xmlns="http://www.w3.org/2000/svg">
<path d="M32.0146 21.1021L31.0979 15.473L34.9729 11.5001C35.8583 10.5938 35.35 9.05631 34.0917 8.86464L28.7979 8.05422L26.4146 2.97922C25.9 1.88339 24.1021 1.88339 23.5875 2.97922L21.2042 8.05422L15.9104 8.86464C14.6479 9.05839 14.1437 10.5938 15.0292 11.5001L18.9042 15.473L17.9875 21.1021C17.7771 22.3917 19.1521 23.3501 20.2854 22.7209L25 20.1146L29.7167 22.7209C30.8417 23.348 32.2271 22.4001 32.0146 21.1021Z" fill="#FFA000"/>
<path d="M21.5897 29.6979L16.2959 28.8875L13.9126 23.8125C13.398 22.7166 11.6001 22.7166 11.0855 23.8125L8.7022 28.8875L3.40845 29.6979C2.14595 29.8916 1.64178 31.4271 2.5272 32.3333L6.4022 36.3062L5.48553 41.9354C5.27512 43.2187 6.64387 44.1875 7.78345 43.5541L12.5001 40.9479L17.2168 43.5541C18.3418 44.1791 19.7272 43.2333 19.5147 41.9354L18.598 36.3062L22.473 32.3333C23.3564 31.4271 22.8501 29.8916 21.5897 29.6979Z" fill="#FFC107"/>
<path d="M46.5897 29.6979L41.296 28.8875L38.9126 23.8125C38.398 22.7166 36.6001 22.7166 36.0855 23.8125L33.7022 28.8875L28.4084 29.6979C27.1459 29.8916 26.6418 31.4271 27.5272 32.3333L31.4022 36.3062L30.4855 41.9354C30.2751 43.2208 31.6459 44.1875 32.7834 43.5541L37.5001 40.9479L42.2168 43.5541C43.3418 44.1791 44.7272 43.2333 44.5147 41.9354L43.598 36.3062L47.473 32.3333C48.3564 31.4271 47.8501 29.8916 46.5897 29.6979Z" fill="#FFC107"/>
</svg>
