<svg width="50" height="50" viewBox="0 0 50 50" fill="none" xmlns="http://www.w3.org/2000/svg">
<path d="M46.5897 33.8626L41.296 33.0521L38.9126 27.9771C38.398 26.8813 36.6001 26.8813 36.0855 27.9771L33.7022 33.0521L28.4084 33.8626C27.1459 34.0563 26.6418 35.5917 27.5272 36.498L31.4022 40.4709L30.4855 46.1001C30.2751 47.3855 31.6459 48.3522 32.7834 47.7188L37.5001 45.1105L42.2168 47.7167C43.3418 48.3417 44.7272 47.3959 44.5147 46.098L43.598 40.4688L47.473 36.4959C48.3564 35.5917 47.8501 34.0542 46.5897 33.8626Z" fill="#FFC107"/>
<path d="M21.5897 33.8646L16.2959 33.0542L13.9126 27.9792C13.398 26.8834 11.6001 26.8834 11.0855 27.9792L8.7022 33.0542L3.40845 33.8646C2.14595 34.0584 1.64178 35.5938 2.5272 36.5001L6.4022 40.473L5.48553 46.1021C5.27512 47.3896 6.6522 48.3521 7.78345 47.7209L12.5001 45.1146L17.2168 47.7209C18.3439 48.348 19.7272 47.3959 19.5147 46.1021L18.598 40.473L22.473 36.5001C23.3564 35.5938 22.8501 34.0584 21.5897 33.8646Z" fill="#FFC107"/>
<path d="M21.5896 8.86463L16.2958 8.0563L13.9146 2.9813C13.4 1.88547 11.6021 1.88547 11.0875 2.9813L8.70415 8.0563L3.4104 8.86463C2.1479 9.05838 1.64374 10.5938 2.52915 11.5L6.40415 15.473L5.48749 21.1021C5.27707 22.3876 6.64999 23.3521 7.7854 22.7209L12.5 20.1146L17.2167 22.7209C18.3417 23.3459 19.7271 22.4 19.5146 21.1021L18.5979 15.473L22.4729 11.5C23.3562 10.5938 22.85 9.05838 21.5896 8.86463Z" fill="#FFC107"/>
<path d="M31.4042 15.4751L30.4875 21.1042C30.2771 22.3896 31.65 23.3542 32.7854 22.723L37.5 20.1146L42.2167 22.7209C43.3437 23.348 44.7271 22.3959 44.5146 21.1021L43.5979 15.473L47.4729 11.5001C48.3583 10.5938 47.85 9.05631 46.5917 8.86464L41.2979 8.05422L38.9146 2.97922C38.4 1.88339 36.6021 1.88339 36.0875 2.97922L33.7042 8.05422L28.4104 8.86464C27.1479 9.05839 26.6437 10.5938 27.5292 11.5001L31.4042 15.4751Z" fill="#FFC107"/>
</svg>
