<svg width="50" height="50" viewBox="0 0 50 50" fill="none" xmlns="http://www.w3.org/2000/svg">
<g clip-path="url(#clip0_275_4790)">
<path d="M31.3708 32.5604L30.575 27.6854L33.9291 24.2458C34.8125 23.3396 34.3083 21.8021 33.0479 21.6104L28.4729 20.9104L26.4125 16.5229C25.8979 15.4271 24.1 15.4271 23.5854 16.5229L21.525 20.9104L16.95 21.6104C15.6875 21.8042 15.1833 23.3396 16.0687 24.2458L19.4229 27.6854L18.627 32.5604C18.4166 33.85 19.7916 34.8104 20.925 34.1792L25 31.9292L29.0729 34.1813C30.1979 34.8042 31.5833 33.8604 31.3708 32.5604Z" fill="#FFA000"/>
<path d="M35.05 12.0625L34.2541 16.9375C34.0437 18.2208 35.4125 19.1875 36.552 18.5562L40.625 16.3042L44.6979 18.5562C45.8229 19.1812 47.2083 18.2354 46.9958 16.9375L46.2 12.0625L49.5541 8.62292C50.4375 7.71667 49.9333 6.17917 48.6729 5.9875L44.0979 5.2875L42.0375 0.9C41.5229 -0.195833 39.725 -0.195833 39.2104 0.9L37.15 5.2875L32.575 5.9875C31.3125 6.18125 30.8083 7.71667 31.6937 8.62292L35.05 12.0625Z" fill="#FFC107"/>
<path d="M48.6729 37.2375L44.0979 36.5375L42.0375 32.15C41.5229 31.0542 39.725 31.0542 39.2104 32.15L37.15 36.5375L32.575 37.2375C31.3125 37.4313 30.8083 38.9667 31.6937 39.8729L35.0479 43.3125L34.2541 48.1875C34.0437 49.4667 35.4083 50.4396 36.552 49.8062L40.625 47.5542L44.6979 49.8062C45.8229 50.4312 47.2083 49.4854 46.9958 48.1875L46.2 43.3125L49.5541 39.8729C50.4395 38.9667 49.9333 37.4292 48.6729 37.2375Z" fill="#FFC107"/>
<path d="M4.06057 12.2354L3.26473 17.1104C3.05432 18.3999 4.42932 19.3583 5.56265 18.7291L9.63557 16.477L13.7085 18.7291C14.8335 19.3541 16.2189 18.4083 16.0064 17.1104L15.2106 12.2354L18.5647 8.79578C19.4481 7.88953 18.9439 6.35203 17.6835 6.16036L13.1085 5.46036L11.0501 1.07078C10.5356 -0.025057 8.73765 -0.025057 8.22307 1.07078L6.16265 5.46036L1.58765 6.16036C0.325148 6.35411 -0.179019 7.88953 0.706398 8.79578L4.06057 12.2354Z" fill="#FFC107"/>
<path d="M17.4229 37.2375L12.8479 36.5375L10.7875 32.15C10.2729 31.0542 8.47495 31.0542 7.96037 32.15L5.89995 36.5375L1.32495 37.2375C0.0624527 37.4313 -0.441714 38.9667 0.443703 39.8729L3.79787 43.3125L3.00204 48.1875C2.79162 49.4687 4.15829 50.4417 5.29995 49.8062L9.37495 47.5542L13.4479 49.8062C14.5729 50.4312 15.9583 49.4854 15.7458 48.1875L14.95 43.3125L18.3041 39.8729C19.1895 38.9667 18.6833 37.4292 17.4229 37.2375Z" fill="#FFC107"/>
</g>
<defs>
<clipPath id="clip0_275_4790">
<rect width="50" height="50" fill="white"/>
</clipPath>
</defs>
</svg>
