<svg width="20" height="20" viewBox="0 0 20 20" fill="none" xmlns="http://www.w3.org/2000/svg">
<path d="M13.4917 1.6665H6.50833C3.475 1.6665 1.66666 3.47484 1.66666 6.50817V13.4832C1.66666 16.5248 3.475 18.3332 6.50833 18.3332H13.4833C16.5167 18.3332 18.325 16.5248 18.325 13.4915V6.50817C18.3333 3.47484 16.525 1.6665 13.4917 1.6665ZM13.9833 8.08317L9.25833 12.8082C9.14166 12.9248 8.98333 12.9915 8.81666 12.9915C8.65 12.9915 8.49166 12.9248 8.375 12.8082L6.01666 10.4498C5.775 10.2082 5.775 9.80817 6.01666 9.5665C6.25833 9.32484 6.65833 9.32484 6.9 9.5665L8.81666 11.4832L13.1 7.19984C13.3417 6.95817 13.7417 6.95817 13.9833 7.19984C14.225 7.4415 14.225 7.83317 13.9833 8.08317Z" fill="#15B386"/>
</svg>
