<svg width="40" height="40" viewBox="0 0 40 40" fill="none" xmlns="http://www.w3.org/2000/svg">
<circle cx="20" cy="20" r="19.5" fill="white" stroke="#E5890A"/>
<path d="M24.7502 11.56V10C24.7502 9.59 24.4102 9.25 24.0002 9.25C23.5902 9.25 23.2502 9.59 23.2502 10V11.5H16.7502V10C16.7502 9.59 16.4102 9.25 16.0002 9.25C15.5902 9.25 15.2502 9.59 15.2502 10V11.56C12.5502 11.81 11.2402 13.42 11.0402 15.81C11.0202 16.1 11.2602 16.34 11.5402 16.34H28.4602C28.7502 16.34 28.9902 16.09 28.9602 15.81C28.7602 13.42 27.4502 11.81 24.7502 11.56Z" fill="#E5890A"/>
<path opacity="0.4" d="M29 18.84V20.58C29 21.19 28.46 21.66 27.86 21.56C27.58 21.52 27.29 21.49 27 21.49C23.97 21.49 21.5 23.96 21.5 26.99C21.5 27.45 21.68 28.09 21.87 28.67C22.09 29.32 21.61 29.99 20.92 29.99H16C12.5 29.99 11 27.99 11 24.99V18.83C11 18.28 11.45 17.83 12 17.83H28C28.55 17.84 29 18.29 29 18.84Z" fill="#E5890A"/>
<path d="M27 23C24.79 23 23 24.79 23 27C23 27.75 23.21 28.46 23.58 29.06C24.27 30.22 25.54 31 27 31C28.46 31 29.73 30.22 30.42 29.06C30.79 28.46 31 27.75 31 27C31 24.79 29.21 23 27 23ZM29.07 26.57L26.94 28.54C26.8 28.67 26.61 28.74 26.43 28.74C26.24 28.74 26.05 28.67 25.9 28.52L24.91 27.53C24.62 27.24 24.62 26.76 24.91 26.47C25.2 26.18 25.68 26.18 25.97 26.47L26.45 26.95L28.05 25.47C28.35 25.19 28.83 25.21 29.11 25.51C29.39 25.81 29.37 26.28 29.07 26.57Z" fill="#E5890A"/>
<path d="M16.5 23C16.24 23 15.98 22.89 15.79 22.71C15.61 22.52 15.5 22.26 15.5 22C15.5 21.74 15.61 21.48 15.79 21.29C16.02 21.06 16.37 20.95 16.7 21.02C16.76 21.03 16.82 21.05 16.88 21.08C16.94 21.1 17 21.13 17.06 21.17C17.11 21.21 17.16 21.25 17.21 21.29C17.39 21.48 17.5 21.74 17.5 22C17.5 22.26 17.39 22.52 17.21 22.71C17.16 22.75 17.11 22.79 17.06 22.83C17 22.87 16.94 22.9 16.88 22.92C16.82 22.95 16.76 22.97 16.7 22.98C16.63 22.99 16.56 23 16.5 23Z" fill="#E5890A"/>
<path d="M20 22.9999C19.74 22.9999 19.48 22.8899 19.29 22.7099C19.11 22.5199 19 22.2599 19 21.9999C19 21.7399 19.11 21.48 19.29 21.29C19.67 20.92 20.34 20.92 20.71 21.29C20.89 21.48 21 21.7399 21 21.9999C21 22.2599 20.89 22.5199 20.71 22.7099C20.52 22.8899 20.26 22.9999 20 22.9999Z" fill="#E5890A"/>
<path d="M16.5 26.5C16.24 26.5 15.98 26.39 15.79 26.21C15.61 26.02 15.5 25.76 15.5 25.5C15.5 25.24 15.61 24.98 15.79 24.79C15.89 24.7 15.99 24.63 16.12 24.58C16.49 24.42 16.93 24.51 17.21 24.79C17.39 24.98 17.5 25.24 17.5 25.5C17.5 25.76 17.39 26.02 17.21 26.21C17.02 26.39 16.76 26.5 16.5 26.5Z" fill="#E5890A"/>
</svg>
