<svg width="19" height="19" viewBox="0 0 19 19" fill="none" xmlns="http://www.w3.org/2000/svg">
<path d="M13.4577 3.95837C13.4577 3.48864 13.597 3.02946 13.8579 2.6389C14.1189 2.24833 14.4898 1.94392 14.9238 1.76416C15.3578 1.5844 15.8353 1.53737 16.296 1.62901C16.7567 1.72065 17.1799 1.94685 17.5121 2.279C17.8442 2.61115 18.0704 3.03433 18.162 3.49504C18.2537 3.95574 18.2067 4.43327 18.0269 4.86725C17.8471 5.30122 17.5427 5.67215 17.1522 5.93311C16.7616 6.19408 16.3024 6.33337 15.8327 6.33337C15.2028 6.33337 14.5987 6.08315 14.1533 5.63775C13.7079 5.19235 13.4577 4.58826 13.4577 3.95837ZM1.58268 4.75004H11.0827C11.2926 4.75004 11.494 4.66663 11.6425 4.51817C11.7909 4.3697 11.8743 4.16834 11.8743 3.95837C11.8743 3.74841 11.7909 3.54705 11.6425 3.39858C11.494 3.25012 11.2926 3.16671 11.0827 3.16671H1.58268C1.37272 3.16671 1.17136 3.25012 1.02289 3.39858C0.874423 3.54705 0.791016 3.74841 0.791016 3.95837C0.791016 4.16834 0.874423 4.3697 1.02289 4.51817C1.17136 4.66663 1.37272 4.75004 1.58268 4.75004ZM6.33268 7.12504C5.84268 7.12642 5.36511 7.27932 4.96542 7.56278C4.56574 7.84625 4.26351 8.2464 4.10018 8.70837H1.58268C1.37272 8.70837 1.17136 8.79178 1.02289 8.94025C0.874423 9.08871 0.791016 9.29008 0.791016 9.50004C0.791016 9.71 0.874423 9.91137 1.02289 10.0598C1.17136 10.2083 1.37272 10.2917 1.58268 10.2917H4.10018C4.24542 10.7025 4.50085 11.0654 4.83853 11.3407C5.1762 11.6161 5.58311 11.7932 6.01472 11.8527C6.44633 11.9123 6.886 11.852 7.28562 11.6784C7.68524 11.5048 8.02941 11.2246 8.28046 10.8685C8.5315 10.5124 8.67976 10.0941 8.709 9.6594C8.73823 9.22469 8.64733 8.79031 8.44622 8.4038C8.24512 8.01729 7.94156 7.69355 7.56879 7.46801C7.19601 7.24247 6.76838 7.12382 6.33268 7.12504ZM17.416 8.70837H11.0827C10.8727 8.70837 10.6714 8.79178 10.5229 8.94025C10.3744 9.08871 10.291 9.29008 10.291 9.50004C10.291 9.71 10.3744 9.91137 10.5229 10.0598C10.6714 10.2083 10.8727 10.2917 11.0827 10.2917H17.416C17.626 10.2917 17.8273 10.2083 17.9758 10.0598C18.1243 9.91137 18.2077 9.71 18.2077 9.50004C18.2077 9.29008 18.1243 9.08871 17.9758 8.94025C17.8273 8.79178 17.626 8.70837 17.416 8.70837ZM7.91602 14.25H1.58268C1.37272 14.25 1.17136 14.3334 1.02289 14.4819C0.874423 14.6304 0.791016 14.8317 0.791016 15.0417C0.791016 15.2517 0.874423 15.453 1.02289 15.6015C1.17136 15.75 1.37272 15.8334 1.58268 15.8334H7.91602C8.12598 15.8334 8.32734 15.75 8.47581 15.6015C8.62427 15.453 8.70768 15.2517 8.70768 15.0417C8.70768 14.8317 8.62427 14.6304 8.47581 14.4819C8.32734 14.3334 8.12598 14.25 7.91602 14.25ZM17.416 14.25H14.8985C14.7118 13.7218 14.3443 13.2766 13.8611 12.9932C13.3778 12.7097 12.8099 12.6062 12.2577 12.7009C11.7055 12.7957 11.2046 13.0825 10.8435 13.5109C10.4824 13.9392 10.2843 14.4815 10.2843 15.0417C10.2843 15.602 10.4824 16.1442 10.8435 16.5725C11.2046 17.0009 11.7055 17.2878 12.2577 17.3825C12.8099 17.4772 13.3778 17.3737 13.8611 17.0902C14.3443 16.8068 14.7118 16.3616 14.8985 15.8334H17.416C17.626 15.8334 17.8273 15.75 17.9758 15.6015C18.1243 15.453 18.2077 15.2517 18.2077 15.0417C18.2077 14.8317 18.1243 14.6304 17.9758 14.4819C17.8273 14.3334 17.626 14.25 17.416 14.25Z" fill="#E5890A"/>
</svg>
