<svg width="17" height="17" viewBox="0 0 17 17" fill="none" xmlns="http://www.w3.org/2000/svg">
<path d="M8.5 10.625C9.6736 10.625 10.625 9.6736 10.625 8.5C10.625 7.32639 9.6736 6.375 8.5 6.375C7.32639 6.375 6.375 7.32639 6.375 8.5C6.375 9.6736 7.32639 10.625 8.5 10.625Z" stroke="#546881" stroke-width="1.2" stroke-miterlimit="10" stroke-linecap="round" stroke-linejoin="round"/>
<path d="M1.41699 9.12331V7.87664C1.41699 7.13998 2.01908 6.53081 2.76283 6.53081C4.04491 6.53081 4.56908 5.62414 3.92449 4.51206C3.55616 3.87456 3.77574 3.04581 4.42033 2.67748L5.64574 1.97623C6.20533 1.64331 6.92783 1.84164 7.26074 2.40123L7.33866 2.53581C7.97616 3.64789 9.02449 3.64789 9.66908 2.53581L9.74699 2.40123C10.0799 1.84164 10.8024 1.64331 11.362 1.97623L12.5874 2.67748C13.232 3.04581 13.4516 3.87456 13.0832 4.51206C12.4387 5.62414 12.9628 6.53081 14.2449 6.53081C15.9816 6.53081 15.5907 7.13289 15.5907 7.87664V9.12331C15.5907 9.85998 15.9887 10.4691 14.2449 10.4691C12.9628 10.4691 12.4387 11.3758 13.0832 12.4879C13.4516 13.1325 13.232 13.9541 12.5874 14.3225L11.362 15.0237C10.8024 15.3566 10.0799 15.1583 9.74699 14.5987L9.66908 14.4641C9.03158 13.3521 7.98324 13.3521 7.33866 14.4641L7.26074 14.5987C6.92783 15.1583 6.20533 15.3566 5.64574 15.0237L4.42033 14.3225C3.77574 13.9541 3.55616 13.1254 3.92449 12.4879C4.56908 11.3758 4.04491 10.4691 2.76283 10.4691C2.01908 10.4691 1.41699 9.85998 1.41699 9.12331Z" stroke="#546881" stroke-width="1.2" stroke-miterlimit="10" stroke-linecap="round" stroke-linejoin="round"/>
</svg>
