<svg width="17" height="17" viewBox="0 0 17 17" fill="none" xmlns="http://www.w3.org/2000/svg">
<path d="M15.5837 11.8575V3.30791C15.5837 2.45791 14.8895 1.82749 14.0466 1.89832H14.0041C12.5166 2.02582 10.257 2.78374 8.99616 3.57707L8.87574 3.65499C8.67033 3.78249 8.33033 3.78249 8.12491 3.65499L7.94783 3.54874C6.68699 2.76249 4.43449 2.01166 2.94699 1.89124C2.10408 1.82041 1.41699 2.45791 1.41699 3.30082V11.8575C1.41699 12.5375 1.96949 13.175 2.64949 13.26L2.85491 13.2883C4.39199 13.4937 6.76491 14.2729 8.12491 15.0167L8.15324 15.0308C8.34449 15.1371 8.64908 15.1371 8.83324 15.0308C10.1932 14.28 12.5732 13.4937 14.1174 13.2883L14.3512 13.26C15.0312 13.175 15.5837 12.5375 15.5837 11.8575Z" stroke="#546881" stroke-width="1.2" stroke-linecap="round" stroke-linejoin="round"/>
<path d="M8.5 3.88879V14.5138" stroke="#546881" stroke-width="1.2" stroke-linecap="round" stroke-linejoin="round"/>
<path d="M5.48926 6.01379H3.89551" stroke="#546881" stroke-width="1.2" stroke-linecap="round" stroke-linejoin="round"/>
<path d="M6.02051 8.13879H3.89551" stroke="#546881" stroke-width="1.2" stroke-linecap="round" stroke-linejoin="round"/>
</svg>
