<svg width="17" height="17" viewBox="0 0 17 17" fill="none" xmlns="http://www.w3.org/2000/svg">
<path d="M8.50033 10.2708C9.47833 10.2708 10.2712 9.47796 10.2712 8.49996C10.2712 7.52196 9.47833 6.72913 8.50033 6.72913C7.52232 6.72913 6.72949 7.52196 6.72949 8.49996C6.72949 9.47796 7.52232 10.2708 8.50033 10.2708Z" stroke="#546881" stroke-width="1.2" stroke-miterlimit="10" stroke-linecap="round" stroke-linejoin="round"/>
<path d="M13.1045 6.72913V10.2708" stroke="#546881" stroke-width="1.2" stroke-miterlimit="10" stroke-linecap="round" stroke-linejoin="round"/>
<path d="M6.37467 12.75C6.37467 13.2812 6.22593 13.7841 5.96385 14.2091C5.4751 15.0308 4.57551 15.5833 3.54134 15.5833C2.50717 15.5833 1.60758 15.0308 1.11883 14.2091C0.856748 13.7841 0.708008 13.2812 0.708008 12.75C0.708008 11.1845 1.97592 9.91663 3.54134 9.91663C5.10676 9.91663 6.37467 11.1845 6.37467 12.75Z" stroke="#546881" stroke-width="1.2" stroke-miterlimit="10" stroke-linecap="round" stroke-linejoin="round"/>
<path d="M2.4375 12.7496L3.13874 13.4508L4.6475 12.0554" stroke="#546881" stroke-width="1.2" stroke-linecap="round" stroke-linejoin="round"/>
<path d="M1.41699 10.8375V6.37504C1.41699 3.89587 2.83366 2.83337 5.95866 2.83337H12.042C14.167 2.83337 15.5837 3.89587 15.5837 6.37504V10.625C15.5837 13.1042 14.167 14.1667 12.042 14.1667H6.02116" stroke="#546881" stroke-width="1.2" stroke-miterlimit="10" stroke-linecap="round" stroke-linejoin="round"/>
</svg>
