<svg width="17" height="17" viewBox="0 0 17 17" fill="none" xmlns="http://www.w3.org/2000/svg">
<path d="M12.7362 7.64292V10.4763C12.7362 10.6604 12.7291 10.8375 12.7078 11.0075C12.5449 12.92 11.4187 13.8692 9.34324 13.8692H9.05992C8.88283 13.8692 8.71282 13.9542 8.60657 14.0958L7.75658 15.2292C7.38117 15.7321 6.77199 15.7321 6.39657 15.2292L5.54657 14.0958C5.45448 13.9754 5.24908 13.8692 5.09324 13.8692H4.80992C2.55033 13.8692 1.41699 13.3096 1.41699 10.4763V7.64292C1.41699 5.56751 2.37325 4.44126 4.27867 4.27834C4.44867 4.25709 4.62575 4.25 4.80992 4.25H9.34324C11.6028 4.25 12.7362 5.38334 12.7362 7.64292Z" stroke="#546881" stroke-width="1.2" stroke-miterlimit="10" stroke-linecap="round" stroke-linejoin="round"/>
<path d="M15.5692 4.80955V7.64288C15.5692 9.72538 14.6129 10.8445 12.7075 11.0075C12.7287 10.8375 12.7358 10.6604 12.7358 10.4762V7.64288C12.7358 5.3833 11.6025 4.24996 9.3429 4.24996H4.80957C4.6254 4.24996 4.44832 4.25705 4.27832 4.2783C4.44124 2.37288 5.56749 1.41663 7.6429 1.41663H12.1762C14.4358 1.41663 15.5692 2.54997 15.5692 4.80955Z" stroke="#546881" stroke-width="1.2" stroke-miterlimit="10" stroke-linecap="round" stroke-linejoin="round"/>
<path d="M9.55899 9.38542H9.56536" stroke="#546881" stroke-width="1.2" stroke-linecap="round" stroke-linejoin="round"/>
<path d="M7.08047 9.38542H7.08685" stroke="#546881" stroke-width="1.2" stroke-linecap="round" stroke-linejoin="round"/>
<path d="M4.60098 9.38542H4.60735" stroke="#546881" stroke-width="1.2" stroke-linecap="round" stroke-linejoin="round"/>
</svg>
