<svg width="17" height="17" viewBox="0 0 17 17" fill="none" xmlns="http://www.w3.org/2000/svg">
<path d="M11.9 1.41663H10.0583C7.79167 1.41663 6.375 2.83329 6.375 5.09996V7.96871H9.52L8.05375 6.50246C7.9475 6.39621 7.89792 6.26163 7.89792 6.12704C7.89792 5.99246 7.9475 5.85788 8.05375 5.75163C8.25917 5.54621 8.59917 5.54621 8.80458 5.75163L11.1775 8.12454C11.3829 8.32996 11.3829 8.66996 11.1775 8.87538L8.80458 11.2483C8.59917 11.4537 8.25917 11.4537 8.05375 11.2483C7.84833 11.0429 7.84833 10.7029 8.05375 10.4975L9.52 9.03121H6.375V11.9C6.375 14.1666 7.79167 15.5833 10.0583 15.5833H11.8929C14.1596 15.5833 15.5762 14.1666 15.5762 11.9V5.09996C15.5833 2.83329 14.1667 1.41663 11.9 1.41663Z" fill="#546881"/>
<path d="M1.94824 7.96875C1.65783 7.96875 1.41699 8.20958 1.41699 8.5C1.41699 8.79042 1.65783 9.03125 1.94824 9.03125H6.37533V7.96875H1.94824Z" fill="#546881"/>
</svg>
