<svg width="17" height="17" viewBox="0 0 17 17" fill="none" xmlns="http://www.w3.org/2000/svg">
<path d="M6.37435 15.5833H10.6243C14.166 15.5833 15.5827 14.1666 15.5827 10.625V6.37496C15.5827 2.83329 14.166 1.41663 10.6243 1.41663H6.37435C2.83268 1.41663 1.41602 2.83329 1.41602 6.37496V10.625C1.41602 14.1666 2.83268 15.5833 6.37435 15.5833Z" stroke="#546881" stroke-width="1.2" stroke-linecap="round" stroke-linejoin="round"/>
<path d="M11.531 9.64037C10.7306 10.4408 9.58312 10.6887 8.5702 10.37L6.73562 12.1975C6.60812 12.332 6.34603 12.417 6.15478 12.3887L5.30478 12.2754C5.02145 12.24 4.76645 11.9708 4.72395 11.6945L4.61062 10.8445C4.58228 10.6604 4.67437 10.3983 4.80187 10.2637L6.62937 8.4362C6.3177 7.42329 6.55853 6.27579 7.35895 5.47537C8.50645 4.32787 10.3765 4.32787 11.531 5.47537C12.6785 6.61579 12.6785 8.48579 11.531 9.64037Z" stroke="#546881" stroke-width="1.2" stroke-miterlimit="10" stroke-linecap="round" stroke-linejoin="round"/>
<path d="M7.40286 11.5317L6.80078 10.9225" stroke="#546881" stroke-width="1.2" stroke-miterlimit="10" stroke-linecap="round" stroke-linejoin="round"/>
<path d="M9.48699 7.57914H9.49336" stroke="#546881" stroke-width="1.2" stroke-linecap="round" stroke-linejoin="round"/>
</svg>
