<svg width="16" height="16" viewBox="0 0 16 16" fill="none" xmlns="http://www.w3.org/2000/svg">
<path d="M11.3339 2.33374H4.66769C2.66769 2.33374 1.33459 3.33374 1.33459 5.66683V10.3337C1.33459 12.6668 2.66769 13.6668 4.66769 13.6668H11.3339C13.3339 13.6668 14.667 12.6668 14.667 10.3337V5.66683C14.667 3.33374 13.3346 2.33374 11.3339 2.33374ZM11.6473 6.39338L9.56078 8.05956C9.11247 8.40118 8.56441 8.5862 8.00078 8.5862C7.43714 8.5862 6.88909 8.40118 6.44078 8.05956L4.35423 6.39338C4.25203 6.30879 4.1866 6.18788 4.17168 6.05605C4.15676 5.92423 4.19352 5.79176 4.27423 5.68647C4.35648 5.58415 4.47575 5.51837 4.60617 5.5034C4.73659 5.48842 4.86766 5.52545 4.97096 5.60647L7.06114 7.27338C7.33322 7.47165 7.6612 7.57847 7.99787 7.57847C8.33453 7.57847 8.66251 7.47165 8.93459 7.27338L11.0204 5.60647C11.0713 5.56507 11.13 5.53425 11.1929 5.51584C11.2559 5.49742 11.3219 5.49178 11.3871 5.49923C11.4522 5.50668 11.5153 5.52708 11.5725 5.55924C11.6296 5.59139 11.6798 5.63465 11.72 5.68647C11.8025 5.79052 11.841 5.92266 11.8274 6.05471C11.8138 6.18677 11.7492 6.30829 11.6473 6.39338Z" fill="#F9E8D9"/>
</svg>
