<svg width="50" height="50" viewBox="0 0 50 50" fill="none" xmlns="http://www.w3.org/2000/svg">
<path d="M10.9375 7.8125C10.6297 8.22288 10.2441 8.56862 9.80271 8.82998C9.36131 9.09134 8.87275 9.26319 8.36493 9.33574C7.33934 9.48225 6.29755 9.21535 5.46875 8.59375L4.50937 8.97734C3.63948 9.32524 2.89379 9.92583 2.36852 10.7016C1.84325 11.4774 1.5625 12.3928 1.5625 13.3297V21.0938C1.5625 21.5082 1.72712 21.9056 2.02015 22.1986C2.31317 22.4916 2.7106 22.6562 3.125 22.6562V37.1094C3.125 37.6274 3.33078 38.1242 3.69706 38.4904C4.06334 38.8567 4.56012 39.0625 5.07812 39.0625C5.59613 39.0625 6.09291 38.8567 6.45919 38.4904C6.82547 38.1242 7.03125 37.6274 7.03125 37.1094V28.125C7.03125 27.7106 7.19587 27.3132 7.4889 27.0201C7.78192 26.7271 8.17935 26.5625 8.59375 26.5625H11.7188C12.1332 26.5625 12.5306 26.7271 12.8236 27.0201C13.1166 27.3132 13.2812 27.7106 13.2812 28.125V30.8594C13.2812 31.3774 13.487 31.8742 13.8533 32.2404C14.2196 32.6067 14.7164 32.8125 15.2344 32.8125C15.7524 32.8125 16.2492 32.6067 16.6154 32.2404C16.9817 31.8742 17.1875 31.3774 17.1875 30.8594V27.3438C17.1875 26.1005 16.6936 24.9083 15.8146 24.0292C14.9355 23.1501 13.7432 22.6562 12.5 22.6562C12.0856 22.6562 11.6882 22.4916 11.3951 22.1986C11.1021 21.9056 10.9375 21.5082 10.9375 21.0938V12.5L12.7289 14.2914C12.904 14.4665 13.1119 14.6054 13.3408 14.7002C13.5696 14.795 13.8148 14.8438 14.0625 14.8438C14.3102 14.8438 14.5554 14.795 14.7842 14.7002C15.0131 14.6054 15.221 14.4665 15.3961 14.2914L19.8273 9.86016C19.9812 9.70628 20.1033 9.52358 20.1865 9.3225C20.2698 9.12142 20.3126 8.90591 20.3125 8.68828C20.3123 8.24887 20.1376 7.82752 19.8269 7.51681C19.5162 7.2061 19.0949 7.03146 18.6555 7.03125C18.4378 7.03116 18.2223 7.07396 18.0213 7.15721C17.8202 7.24045 17.6375 7.36251 17.4836 7.51641L14.0625 10.9375L10.9375 7.8125Z" fill="#F2B9A1"/>
<path d="M7.8125 9.375C9.96986 9.375 11.7188 7.62611 11.7188 5.46875C11.7188 3.31139 9.96986 1.5625 7.8125 1.5625C5.65514 1.5625 3.90625 3.31139 3.90625 5.46875C3.90625 7.62611 5.65514 9.375 7.8125 9.375Z" fill="#FBE1CA"/>
<path d="M3.125 23.4375V21.875C3.3322 21.875 3.53091 21.7927 3.67743 21.6462C3.82394 21.4997 3.90625 21.301 3.90625 21.0938V13.2812H5.46875V21.0938C5.46875 21.7154 5.22182 22.3115 4.78228 22.751C4.34274 23.1906 3.7466 23.4375 3.125 23.4375Z" fill="#FBE1CA"/>
<path d="M10.1562 39.8438L14.8438 35.1562L19.5312 39.8438H17.1875V48.4375H12.5V39.8438H10.1562Z" fill="#6BC13B"/>
<path d="M24.2188 31.25L28.9062 26.5625L33.5938 31.25H31.25V48.4375H26.5625V31.25H24.2188Z" fill="#559B2D"/>
<path d="M37.5 21.875L42.1875 17.1875L46.875 21.875H44.5312V48.4375H39.8438V21.875H37.5Z" fill="#4D8C28"/>
<path d="M42.1875 10.9375L46.0938 13.2812L44.5312 9.375L48.4375 6.25H43.75L42.1875 1.5625L40.625 6.25H35.9375L39.8438 9.375L38.2812 13.2812L42.1875 10.9375Z" fill="#F9D266"/>
<path d="M28.9062 20.3125L32.8125 22.6562L31.25 18.75L35.1562 15.625H30.4688L28.9062 10.9375L27.3438 15.625H22.6562L26.5625 18.75L25 22.6562L28.9062 20.3125Z" fill="#F9D266"/>
</svg>
