<svg width="50" height="50" viewBox="0 0 50 50" fill="none" xmlns="http://www.w3.org/2000/svg">
<path d="M1.5625 1.5625H32.8125V42.1875H1.5625V1.5625Z" fill="#C8CDED"/>
<path d="M1.5625 1.5625H28.9062V39.0625H1.5625V1.5625Z" fill="#E2E7F6"/>
<path d="M21.4977 39.0625H6.25V31.25H18.75V35.9375H20.5313C20.7232 37.015 21.0478 38.0647 21.4977 39.0625Z" fill="#3B5892"/>
<path d="M27.6273 21.7351C27.0679 22.0172 26.5293 22.3388 26.0156 22.6976L24.7586 21.4405L21.4445 24.7546L22.6976 26.0155C22.4565 26.3614 22.2323 26.7184 22.025 27.0866C19.5052 28.2279 16.6628 28.4406 14.0012 27.687C11.3396 26.9335 9.03053 25.2624 7.48292 22.9696C5.93531 20.6768 5.24903 17.9104 5.5456 15.1601C5.84217 12.4098 7.10246 9.85325 9.10328 7.94311C11.1041 6.03297 13.7163 4.89253 16.4774 4.72374C19.2385 4.55496 21.9702 5.36873 24.1887 7.02093C26.4073 8.67314 27.9696 11.0572 28.599 13.7508C29.2284 16.4445 28.8841 19.274 27.6273 21.7382V21.7351Z" fill="#78A0D4"/>
<path d="M10.1563 25.7813V23.4376C10.1559 22.0754 10.5512 20.7425 11.2942 19.6008C12.0372 18.459 13.0958 17.5577 14.3414 17.0063C15.1588 17.6309 16.1588 17.9693 17.1875 17.9693C18.2162 17.9693 19.2163 17.6309 20.0336 17.0063C21.0713 17.4657 21.9827 18.1691 22.69 19.0565C23.3973 19.9439 23.8797 20.9892 24.0961 22.1032L21.4445 24.7548L22.6977 26.0157C22.4565 26.3616 22.2323 26.7186 22.025 27.0868C20.1147 27.9496 18.0082 28.285 15.9245 28.0581C13.8407 27.8313 11.8557 27.0505 10.1758 25.797L10.1563 25.7813Z" fill="#3B5892"/>
<path d="M17.1875 17.9688C19.7763 17.9688 21.875 15.8701 21.875 13.2812C21.875 10.6924 19.7763 8.59375 17.1875 8.59375C14.5987 8.59375 12.5 10.6924 12.5 13.2812C12.5 15.8701 14.5987 17.9688 17.1875 17.9688Z" fill="#FBE1CA"/>
<path d="M48.4891 35.886V31.1985H46.7078C46.3732 29.3174 45.6341 27.5314 44.5414 25.9641L45.7992 24.7071L42.4844 21.3883L41.2273 22.6461C39.66 21.5535 37.8741 20.8143 35.993 20.4797V18.6985H31.3055V20.4797C29.4243 20.8142 27.6384 21.5534 26.0711 22.6461L24.8133 21.3883L21.4922 24.7032L22.7492 25.9602C21.6568 27.5276 20.9179 29.3135 20.5836 31.1946H18.8016V35.8821H20.5836C20.9178 37.7631 21.6567 39.5491 22.7492 41.1165L21.4922 42.3743L24.8062 45.6883L26.0641 44.4313C27.6314 45.5238 29.4174 46.2627 31.2984 46.5969V48.379H35.9859V46.604C37.867 46.2697 39.6529 45.5308 41.2203 44.4383L42.4844 45.6954L45.7992 42.3813L44.5414 41.1235C45.6342 39.5562 46.3734 37.7702 46.7078 35.8891L48.4891 35.886Z" fill="#686868"/>
<path d="M33.6453 42.136C38.3915 42.136 42.2391 38.2884 42.2391 33.5422C42.2391 28.796 38.3915 25.9485 33.6453 25.9485C28.8991 25.9485 25.0516 28.796 25.0516 33.5422C25.0516 38.2884 28.8991 42.136 33.6453 42.136Z" fill="#6BC13B"/>
<path d="M33.5937 25C31.9882 25.9981 30.4144 25.4465 29.051 26.2944C27.6875 27.1422 26.5892 28.3554 25.8808 29.7961C25.1724 31.2369 24.8823 32.8475 25.0434 34.4449C25.2045 36.0423 25.8103 37.5625 26.7922 38.8328C28.444 40.1094 30.5043 40.7403 32.5877 40.6074C34.6711 40.4745 36.6346 39.5869 38.1107 38.1107C39.5869 36.6346 40.4745 34.6711 40.6074 32.5877C40.7403 30.5044 40.1094 28.444 38.8328 26.7922C37.3337 25.63 35.4906 25.9995 33.5937 25Z" fill="#7BDF45"/>
<path d="M28.125 34.375L32.0312 38.2812L39.0625 31.25L37.5 29.6875L32.0312 35.1562L29.6875 32.8125L28.125 34.375Z" fill="#F2F2F2"/>
<path d="M6.25 35.1562H14.3906C14.5978 35.1562 14.7965 35.0739 15.9431 35.9274C15.0896 34.7809 15.1719 34.5822 15.1719 34.375V31.25H6.25V35.1562Z" fill="#4C6CB5"/>
<path d="M20.0219 22.6563V17.0134C19.2048 17.6341 18.2066 17.9696 17.1805 17.9683C16.1543 17.9671 15.157 17.6291 14.3414 17.0063C13.0958 17.5577 12.0372 18.459 11.2942 19.6008C10.5512 20.7425 10.1559 22.0754 10.1563 23.4376V24.2188H18.4594C18.8738 24.2188 19.2712 24.0542 19.5642 23.7612C19.8573 23.4682 20.0219 23.0707 20.0219 22.6563Z" fill="#4C6CB5"/>
</svg>
