<svg width="50" height="50" viewBox="0 0 50 50" fill="none" xmlns="http://www.w3.org/2000/svg">
<path d="M12.5515 37.4485V1.51099H42.239C42.6534 1.51099 43.0508 1.67561 43.3439 1.96863C43.6369 2.26166 43.8015 2.65909 43.8015 3.07349V37.4485H12.5515Z" fill="#5E87CA"/>
<path d="M15.6765 4.63599H40.6765V17.136H15.6765V4.63599Z" fill="#CCCCCC"/>
<path d="M38.2812 13.2812V4.6875H15.625V14.8438H36.7188C37.1332 14.8438 37.5306 14.6791 37.8236 14.3861C38.1166 14.0931 38.2812 13.6957 38.2812 13.2812Z" fill="#F2F2F2"/>
<path d="M12.5 1.5625V42.9688H6.25V6.25C6.25 5.0068 6.74386 3.81451 7.62294 2.93544C8.50201 2.05636 9.6943 1.5625 10.9375 1.5625H12.5Z" fill="#213D68"/>
<path d="M42.1875 45.3125H11.7188C11.0971 45.3125 10.501 45.0656 10.0615 44.626C9.62193 44.1865 9.375 43.5904 9.375 42.9688C9.375 42.3471 9.62193 41.751 10.0615 41.3115C10.501 40.8719 11.0971 40.625 11.7188 40.625H42.1875V45.3125Z" fill="#B5B5B5"/>
<path d="M43.75 37.5H11.7188C10.2683 37.5 8.87735 38.0762 7.85176 39.1018C6.82617 40.1273 6.25 41.5183 6.25 42.9688C6.25 44.4192 6.82617 45.8102 7.85176 46.8357C8.87735 47.8613 10.2683 48.4375 11.7188 48.4375H43.75V45.3125H11.7188C11.0971 45.3125 10.501 45.0656 10.0615 44.626C9.62193 44.1865 9.375 43.5904 9.375 42.9688C9.375 42.3471 9.62193 41.751 10.0615 41.3115C10.501 40.8719 11.0971 40.625 11.7188 40.625H43.75V37.5Z" fill="#4C6CB5"/>
<path d="M29.739 1.51099V10.886L32.864 7.76099L35.989 10.886V1.51099" fill="#F0AE42"/>
<path d="M15.6765 20.261H40.6765V34.3235H15.6765V20.261Z" fill="#78A0D4"/>
<path d="M15.625 20.3125H38.2812V31.25H15.625V20.3125Z" fill="#C0DAFC"/>
<path d="M17.9688 23.4375H38.2812V25H17.9688V23.4375Z" fill="white"/>
<path d="M17.9688 26.5625H38.2812V28.125H17.9688V26.5625Z" fill="white"/>
<path d="M17.9688 29.6875H38.2812V31.25H17.9688V29.6875Z" fill="white"/>
<path d="M29.6875 1.5625V10.9375L32.8125 7.8125V1.5625H29.6875Z" fill="#F9D266"/>
<path d="M39.2297 42.0359V40.625H11.7187C11.1247 40.6259 10.5533 40.853 10.1208 41.2603C9.68827 41.6675 9.42718 42.2243 9.39062 42.8172H38.4484C38.6556 42.8172 38.8544 42.7349 39.0009 42.5884C39.1474 42.4419 39.2297 42.2431 39.2297 42.0359Z" fill="#CCCCCC"/>
</svg>
