<svg width="18" height="18" viewBox="0 0 18 18" fill="none" xmlns="http://www.w3.org/2000/svg">
<path d="M13.3575 4.1175V4.6725L10.7025 3.135C9.69749 2.5575 8.29499 2.5575 7.29749 3.135L4.64249 4.68V4.1175C4.64249 2.43 5.56499 1.5 7.25249 1.5H10.7475C12.435 1.5 13.3575 2.43 13.3575 4.1175Z" fill="#3D4C5E"/>
<path d="M13.38 5.97743L13.275 5.92493L12.255 5.33993L10.14 4.11743C9.495 3.74243 8.505 3.74243 7.86 4.11743L5.745 5.33243L4.725 5.93243L4.59 5.99993C3.2775 6.88493 3.1875 7.04993 3.1875 8.46743V11.8574C3.1875 13.2749 3.2775 13.4399 4.62 14.3474L7.86 16.2149C8.1825 16.4099 8.5875 16.4924 9 16.4924C9.405 16.4924 9.8175 16.4024 10.14 16.2149L13.41 14.3249C14.73 13.4399 14.8125 13.2824 14.8125 11.8574V8.46743C14.8125 7.04993 14.7225 6.88493 13.38 5.97743ZM11.0925 10.1249L10.635 10.6874C10.56 10.7699 10.5075 10.9274 10.515 11.0399L10.56 11.7599C10.59 12.2024 10.275 12.4274 9.8625 12.2699L9.195 11.9999C9.09 11.9624 8.9175 11.9624 8.8125 11.9999L8.145 12.2624C7.7325 12.4274 7.4175 12.1949 7.4475 11.7524L7.4925 11.0324C7.5 10.9199 7.4475 10.7624 7.3725 10.6799L6.9075 10.1249C6.6225 9.78743 6.75 9.41243 7.1775 9.29993L7.875 9.11993C7.9875 9.08993 8.115 8.98493 8.175 8.89493L8.565 8.29493C8.805 7.91993 9.1875 7.91993 9.435 8.29493L9.825 8.89493C9.885 8.99243 10.02 9.08993 10.125 9.11993L10.8225 9.29993C11.25 9.41243 11.3775 9.78743 11.0925 10.1249Z" fill="#3D4C5E"/>
</svg>
