<svg width="18" height="18" viewBox="0 0 18 18" fill="none" xmlns="http://www.w3.org/2000/svg">
<path d="M10.1059 2.91134L11.2289 5.15723C11.382 5.46349 11.7904 5.76975 12.1307 5.8208L14.1639 6.16108C15.4655 6.38227 15.7717 7.31806 14.8359 8.25385L13.2536 9.8447C12.9899 10.1084 12.8368 10.6274 12.9218 11.0017L13.3727 12.9668C13.73 14.5151 12.9048 15.1192 11.5352 14.311L9.62954 13.1795C9.28075 12.9753 8.71927 12.9753 8.37048 13.1795L6.45636 14.3025C5.0867 15.1106 4.2615 14.5066 4.61881 12.9583L5.06969 10.9932C5.15476 10.6274 5.00163 10.1084 4.73791 9.83619L3.16408 8.26236C2.22828 7.32657 2.53454 6.38227 3.83614 6.16959L5.86936 5.8293C6.20965 5.76975 6.618 5.472 6.77112 5.16574L7.89407 2.91984C8.49808 1.69481 9.50193 1.69481 10.1059 2.91134Z" fill="#3D4C5E"/>
</svg>
