<svg width="18" height="18" viewBox="0 0 18 18" fill="none" xmlns="http://www.w3.org/2000/svg">
<path d="M12.6225 11.7301C13.125 11.4001 13.785 11.7601 13.785 12.3601V13.3276C13.785 14.2801 13.0425 15.3001 12.15 15.6001L9.75753 16.3951C9.33753 16.5376 8.65503 16.5376 8.24253 16.3951L5.85003 15.6001C4.95003 15.3001 4.21503 14.2801 4.21503 13.3276V12.3526C4.21503 11.7601 4.87503 11.4001 5.37003 11.7226L6.91503 12.7276C7.50753 13.1251 8.25753 13.3201 9.00753 13.3201C9.75753 13.3201 10.5075 13.1251 11.1 12.7276L12.6225 11.7301Z" fill="#3D4C5E"/>
<path d="M14.985 4.84492L10.4925 1.89742C9.68251 1.36492 8.34751 1.36492 7.53751 1.89742L3.02251 4.84492C1.57501 5.78242 1.57501 7.90492 3.02251 8.84992L4.22251 9.62992L7.53751 11.7899C8.34751 12.3224 9.68251 12.3224 10.4925 11.7899L13.785 9.62992L14.8125 8.95492V11.2499C14.8125 11.5574 15.0675 11.8124 15.375 11.8124C15.6825 11.8124 15.9375 11.5574 15.9375 11.2499V7.55992C16.2375 6.59242 15.93 5.46742 14.985 4.84492Z" fill="#3D4C5E"/>
</svg>
