<svg width="40" height="40" viewBox="0 0 40 40" fill="none" xmlns="http://www.w3.org/2000/svg">
<rect width="40" height="40" rx="4" fill="#E5890A"/>
<g clip-path="url(#clip0_392_8971)">
<path d="M33.1797 26.6172H33.0703V25.5781C33.0703 24.2212 31.9663 23.1172 30.6094 23.1172C28.5931 23.1172 26.6008 22.7939 24.6878 22.1563C24.125 21.9687 23.7087 21.8047 23.0114 21.8047C21.7906 21.8047 20.7022 22.3792 20.0001 23.2714C19.2978 22.3792 18.2094 21.8047 16.9887 21.8047C16.2965 21.8047 15.8873 21.9645 15.3122 22.1563C13.3992 22.7939 11.4069 23.1172 9.39062 23.1172C8.03366 23.1172 6.92969 24.2212 6.92969 25.5781V26.6172H6.82031C6.36728 26.6172 6 26.9845 6 27.4375V30.9375C6 31.3905 6.36728 31.7578 6.82031 31.7578H17.1403C17.4614 33.0653 18.642 34 20 34C21.358 34 22.5386 33.0652 22.8597 31.7578H33.1797C33.6327 31.7578 34 31.3905 34 30.9375V27.4375C34 26.9845 33.6327 26.6172 33.1797 26.6172ZM23.0113 23.4453C23.4468 23.4453 23.7091 23.5594 24.169 23.7127C26.2495 24.4062 28.4164 24.7578 30.6094 24.7578C31.0617 24.7578 31.4297 25.1258 31.4297 25.5781V26.6172H23.1686C22.3404 26.6172 21.5415 26.8068 20.8203 27.1638V25.6364C20.8203 24.4282 21.8032 23.4453 23.0113 23.4453ZM8.57031 25.5781C8.57031 25.1258 8.9383 24.7578 9.39062 24.7578C11.5836 24.7578 13.7505 24.4062 15.831 23.7127C16.3261 23.5477 16.5643 23.4453 16.9887 23.4453C18.1968 23.4453 19.1797 24.4282 19.1797 25.6363V27.1638C18.4585 26.8068 17.6596 26.6171 16.8314 26.6171H8.57031V25.5781ZM32.3594 30.1172H22.722C22.0208 30.1172 21.4144 30.6167 21.28 31.305C21.1608 31.916 20.6225 32.3594 20 32.3594C19.3775 32.3594 18.8392 31.916 18.72 31.3049C18.5856 30.6167 17.9792 30.1172 17.278 30.1172H7.64062V28.2578H16.8314C17.8092 28.2578 18.7285 28.6386 19.42 29.33C19.7403 29.6503 20.2597 29.6503 20.5801 29.33C21.2715 28.6386 22.1908 28.2578 23.1686 28.2578H32.3594V30.1172Z" fill="white"/>
<path d="M14.4702 19.4047C15.4579 20.3925 17.031 20.1785 18.3302 19.6701C18.8748 19.4571 19.4365 19.1706 20 18.8217C20.5635 19.1706 21.1253 19.457 21.6698 19.6701C22.974 20.1805 24.5442 20.3905 25.5298 19.4047C26.3529 18.5817 26.4471 17.2108 25.7952 15.5448C25.5821 15.0002 25.2957 14.4385 24.9468 13.875C25.2957 13.3115 25.5821 12.7497 25.7952 12.2051C26.4471 10.5391 26.3529 9.16822 25.5298 8.34517C24.7068 7.52201 23.3359 7.4279 21.6698 8.07977C21.1253 8.29283 20.5635 8.57929 20 8.92819C19.4365 8.57934 18.8748 8.29289 18.3302 8.07977C16.6641 7.42784 15.2933 7.52212 14.4702 8.34517C13.6471 9.16822 13.553 10.5391 14.2048 12.2051C14.418 12.7497 14.7044 13.3115 15.0533 13.875C14.7044 14.4385 14.418 15.0002 14.2048 15.5448C13.5529 17.2108 13.6471 18.5817 14.4702 19.4047ZM24.2673 16.1426C24.6498 17.1199 24.689 17.9254 24.3697 18.2447C24.0504 18.5639 23.2449 18.5247 22.2676 18.1423C22.0058 18.0398 21.738 17.9154 21.4672 17.773C22.333 17.0709 23.1616 16.2504 23.898 15.3422C24.0404 15.613 24.1649 15.8808 24.2673 16.1426ZM20 10.9121C21.0952 11.73 22.1437 12.7781 22.9628 13.875C22.145 14.9702 21.0969 16.0187 20 16.8378C18.9048 16.0199 17.8563 14.9718 17.0372 13.875C17.8551 12.7797 18.9031 11.7312 20 10.9121ZM23.6728 9.29061C23.9843 9.29061 24.2262 9.3617 24.3697 9.50526C24.689 9.82458 24.6498 10.63 24.2673 11.6073C24.1649 11.8692 24.0404 12.1369 23.898 12.4078C23.196 11.5419 22.3754 10.7134 21.4672 9.97699C22.1037 9.6423 22.957 9.29061 23.6728 9.29061ZM15.7327 11.6073C15.3503 10.63 15.3111 9.82452 15.6303 9.5052C15.7739 9.36165 16.0157 9.29055 16.3273 9.29055C17.0443 9.29055 17.8984 9.64334 18.5328 9.97688C17.6669 10.679 16.8384 11.4995 16.102 12.4077C15.9596 12.1369 15.8352 11.8691 15.7327 11.6073ZM18.5328 17.773C18.2619 17.9154 17.9942 18.0398 17.7323 18.1423C16.755 18.5247 15.9496 18.564 15.6303 18.2446C15.311 17.9253 15.3502 17.1199 15.7326 16.1426C15.8351 15.8807 15.9595 15.613 16.1019 15.3421C16.8041 16.208 17.6246 17.0365 18.5328 17.773Z" fill="white"/>
<path d="M20.0011 14.6953C20.4542 14.6953 20.8214 14.328 20.8214 13.875C20.8214 13.422 20.4542 13.0547 20.0011 13.0547C19.5434 13.0547 19.1805 13.4258 19.1805 13.875C19.1805 14.328 19.548 14.6953 20.0011 14.6953Z" fill="white"/>
<path d="M29.6261 7.64062C30.0792 7.64062 30.4464 7.27334 30.4464 6.82031C30.4464 6.36728 30.0792 6 29.6261 6C29.1684 6 28.8055 6.37111 28.8055 6.82031C28.8055 7.27334 29.173 7.64062 29.6261 7.64062Z" fill="white"/>
<path d="M10.3761 19.9453C10.8292 19.9453 11.1964 19.578 11.1964 19.125C11.1964 18.672 10.8292 18.3047 10.3761 18.3047C9.91844 18.3047 9.55548 18.6758 9.55548 19.125C9.55548 19.578 9.92298 19.9453 10.3761 19.9453Z" fill="white"/>
<path d="M8.62607 12.0703C9.07915 12.0703 9.44638 11.703 9.44638 11.25C9.44638 10.797 9.07915 10.4297 8.62607 10.4297C8.16844 10.4297 7.80548 10.8008 7.80548 11.25C7.80548 11.703 8.17298 12.0703 8.62607 12.0703Z" fill="white"/>
<path d="M28.7511 18.6328C29.2042 18.6328 29.5714 18.2655 29.5714 17.8125C29.5714 17.3595 29.2042 16.9922 28.7511 16.9922C28.2934 16.9922 27.9305 17.3633 27.9305 17.8125C27.9305 18.2655 28.298 18.6328 28.7511 18.6328Z" fill="white"/>
</g>
<defs>
<clipPath id="clip0_392_8971">
<rect width="28" height="28" fill="white" transform="translate(6 6)"/>
</clipPath>
</defs>
</svg>
