<svg width="40" height="40" viewBox="0 0 40 40" fill="none" xmlns="http://www.w3.org/2000/svg">
<rect width="40" height="40" rx="4" fill="#E5890A"/>
<g clip-path="url(#clip0_456_6060)">
<path d="M33.1796 26.6172H33.0685V25.1613C33.07 24.7331 32.8612 24.287 32.4807 23.9051C31.9817 23.4043 31.2996 23.1171 30.6092 23.1171C28.5929 23.1171 26.6006 22.7938 24.6877 22.1562L24.2229 22.0012C22.7094 21.4966 21.0182 21.9774 19.9999 23.2712C18.9813 21.9771 17.2901 21.4969 15.777 22.0012L15.3121 22.1561C13.3992 22.7938 11.407 23.1171 9.39061 23.1171C8.03365 23.1171 6.92968 24.221 6.92968 25.578V26.617H6.82031C6.36728 26.617 6 26.9843 6 27.4374V30.9373C6 31.3904 6.36728 31.7576 6.82031 31.7576H17.1402C17.4613 33.0651 18.6419 33.9998 19.9999 33.9998C21.3579 33.9998 22.5386 33.0652 22.8596 31.7576H33.1795C33.6326 31.7576 33.9998 31.3904 33.9998 30.9373V27.4374C33.9999 26.9844 33.6327 26.6172 33.1796 26.6172ZM23.0113 23.4453C23.4459 23.4453 23.7082 23.5591 24.1689 23.7127C26.2495 24.4062 28.4163 24.7578 30.6093 24.7578C31.0235 24.7578 31.3592 25.0586 31.4278 25.2021V26.6172H23.1686C22.3404 26.6172 21.5415 26.8068 20.8203 27.1638V25.6363C20.8203 24.4282 21.8032 23.4453 23.0113 23.4453ZM8.57035 25.5781C8.57035 25.1258 8.93834 24.7578 9.39066 24.7578C11.5837 24.7578 13.7505 24.4062 15.831 23.7127C16.2868 23.5607 16.555 23.4453 16.9887 23.4453C18.1968 23.4453 19.1797 24.4282 19.1797 25.6363V27.1638C18.4585 26.8068 17.6596 26.6171 16.8313 26.6171H8.57035V25.5781ZM32.3593 30.1171H22.7219C22.0207 30.1171 21.4142 30.6167 21.28 31.3049C21.1608 31.9159 20.6224 32.3593 20 32.3593C19.3775 32.3593 18.8392 31.9159 18.72 31.3049C18.5857 30.6167 17.9793 30.1171 17.278 30.1171H7.64067V28.2578H16.8313C17.8091 28.2578 18.7285 28.6386 19.4199 29.33C19.7402 29.6503 20.2596 29.6503 20.58 29.33C21.2714 28.6385 22.1907 28.2578 23.1685 28.2578H32.3592V30.1171H32.3593Z" fill="white"/>
<path d="M17.4101 16.4212C17.438 16.617 17.4297 16.3816 17.4297 17.8127C17.4297 19.23 18.5827 20.383 20 20.383C21.4172 20.383 22.5703 19.23 22.5703 17.8127C22.5703 16.4181 22.567 16.5813 22.5778 16.5057C22.7248 15.4771 23.1224 14.5305 23.7277 13.7684C24.392 12.9321 24.7578 11.8824 24.7578 10.8127C24.7578 8.18907 22.6205 6.01416 20.0044 6.00027C18.7065 5.99617 17.5258 6.51635 16.6405 7.41541C15.9358 9.14686 14.772 11.8382 16.2409 13.7286C16.8697 14.5377 17.274 15.4688 17.4101 16.4212ZM20 18.7424C19.4873 18.7424 19.0703 18.3253 19.0703 17.8127V17.3205H20.9297V17.8127C20.9297 18.3253 20.5127 18.7424 20 18.7424ZM19.9802 7.64083C21.672 7.64083 23.1172 9.09031 23.1172 10.8127C23.1172 11.5236 22.8841 12.1928 22.4431 12.7481C21.7765 13.5873 21.3049 14.5914 21.0621 15.6799H18.9417C18.7093 14.6267 18.2289 13.613 17.5365 12.7219C17.1051 12.1668 16.8791 11.5006 16.8829 10.7955C16.8921 9.08184 18.3088 7.64083 19.9802 7.64083Z" fill="white"/>
<path d="M27.0546 10.8127C27.0546 11.2658 27.4219 11.6331 27.8749 11.6331H29.6249C30.078 11.6331 30.4453 11.2658 30.4453 10.8127C30.4453 10.3597 30.078 9.99243 29.6249 9.99243H27.8749C27.4219 9.99243 27.0546 10.3597 27.0546 10.8127Z" fill="white"/>
<path d="M27.3848 8.4746L29.1348 7.54491C29.5349 7.33239 29.687 6.83572 29.4744 6.43563C29.2619 6.03559 28.7653 5.88345 28.3651 6.09607L26.6151 7.02576C26.215 7.23828 26.063 7.73495 26.2756 8.13504C26.4891 8.53705 26.9867 8.68618 27.3848 8.4746Z" fill="white"/>
<path d="M27.3668 13.1414C26.9616 12.9389 26.4689 13.1031 26.2662 13.5083C26.0636 13.9135 26.2279 14.4062 26.6331 14.6089L28.3831 15.4839C28.7891 15.6869 29.2814 15.5214 29.4837 15.117C29.6863 14.7118 29.522 14.2191 29.1168 14.0164L27.3668 13.1414Z" fill="white"/>
<path d="M10.3751 11.6331H12.1251C12.5781 11.6331 12.9454 11.2658 12.9454 10.8127C12.9454 10.3597 12.5781 9.99243 12.1251 9.99243H10.3751C9.92203 9.99243 9.55475 10.3597 9.55475 10.8127C9.55475 11.2658 9.92203 11.6331 10.3751 11.6331Z" fill="white"/>
<path d="M10.8652 7.5449L12.6152 8.47458C13.0134 8.68622 13.511 8.53687 13.7245 8.13503C13.937 7.73493 13.785 7.23832 13.3849 7.02575L11.6349 6.09606C11.2349 5.88349 10.7381 6.03552 10.5256 6.43561C10.3131 6.83571 10.4651 7.33232 10.8652 7.5449Z" fill="white"/>
<path d="M12.6332 13.1415L10.8832 14.0165C10.478 14.2191 10.3137 14.7118 10.5164 15.1171C10.719 15.5224 11.2118 15.6865 11.6169 15.4839L13.3669 14.6089C13.7722 14.4063 13.9364 13.9136 13.7338 13.5083C13.5312 13.1031 13.0384 12.9389 12.6332 13.1415Z" fill="white"/>
</g>
<defs>
<clipPath id="clip0_456_6060">
<rect width="28" height="28" fill="white" transform="translate(6 6)"/>
</clipPath>
</defs>
</svg>
