<svg width="40" height="40" viewBox="0 0 40 40" fill="none" xmlns="http://www.w3.org/2000/svg">
<g clip-path="url(#clip0_419_11409)">
<path d="M36.3177 2.5H18.7448C16.7145 2.5 15.0626 4.15192 15.0626 6.18225V17.4551L11.7996 15.8325C11.6895 15.7776 11.5775 15.7257 11.4645 15.6766C12.4225 14.6765 13.013 13.3215 13.013 11.8307C13.013 8.76221 10.5167 6.26556 7.44812 6.26556C4.37927 6.26556 1.88293 8.76221 1.88293 11.8307C1.88293 13.4982 2.62115 15.996 3.78693 16.0168C1.64001 17.2247 0 19.581 0 22.5V26.2656C0 27.8867 1.05255 29.2664 2.51038 29.7568V36.3074C2.51038 36.9543 3.03497 37.4792 3.68225 37.4792H11.2134C11.8607 37.4792 12.3853 36.9543 12.3853 36.3074V23.1406L16.1371 25.0162C17.5729 25.7339 19.5206 25.3061 20.4013 23.6719H24.603L20.1538 35.9067C19.9326 36.5149 20.2466 37.1875 20.8548 37.4084C21.55 37.6614 22.1683 37.2253 22.3566 36.7078L27.0969 23.6719H27.9184L32.7072 36.7114C32.8891 37.2061 33.5028 37.6675 34.2114 37.4072C34.8187 37.1841 35.1306 36.5109 35.9072 35.9033L30.415 23.6719H36.3177C38.3087 23.6719 40 22.0657 40 19.9896V6.18225C40 4.10584 38.3087 2.5 36.3177 2.5ZM4.22668 11.8307C4.22668 10.0543 5.67169 8.60931 7.44781 8.60931C9.22424 8.60931 10.6693 10.0543 10.6693 11.8307C10.6693 13.6069 9.22424 15.0519 7.44781 15.0519C5.67169 15.0519 4.22668 13.6069 4.22668 11.8307ZM18.3984 22.4188C18.3954 22.4274 18.3923 22.4362 18.3896 22.4451C18.3096 22.6682 18.129 22.8561 17.9077 22.9471C17.6736 23.0423 17.4103 23.0322 17.1854 22.9199C15.957 21.8051 11.7371 20.1965 11.7371 20.1965C10.9595 19.8077 10.0415 20.3741 10.0415 21.2448V35.1355H4.85413V28.7759C4.85413 28.129 4.32922 27.6041 3.68225 27.6041C2.94403 27.6041 2.34375 27.0038 2.34375 26.2656V22.5C2.34375 19.6365 4.67529 17.3959 7.44781 17.3959H8.48328C9.2688 17.3959 10.0534 17.5803 10.7544 17.9303C10.7544 17.9303 16.5671 20.8209 18.0475 21.5582C18.3646 21.7157 18.5153 22.0856 18.3984 22.4188ZM37.6562 19.9896C37.6562 20.3476 37.5174 20.6836 37.2647 20.9363C37.016 21.1853 36.6708 21.3281 36.3177 21.3281H20.6561C20.654 21.3217 20.6525 21.3153 20.6503 21.3092L23.5587 15.4929C23.848 15.9139 23.6136 14.2102 23.0347 13.9206C22.4561 13.6313 21.752 13.8657 21.4624 14.4446L18.9819 19.4052C18.5196 19.1748 17.9822 18.9072 17.4063 18.6209V6.18225C17.4063 5.44434 18.0066 4.84375 18.7448 4.84375H36.3177C36.6708 4.84375 37.016 5.98657 37.265 5.23621C37.5174 5.48828 37.6562 5.82428 37.6562 6.18225V19.9896Z" fill="white"/>
<path d="M33.8074 7.52051H21.2552C20.6079 7.52051 20.0833 8.0451 20.0833 8.69238C20.0833 9.33966 20.6079 9.86426 21.2552 9.86426H33.8074C34.4543 9.86426 35.9792 9.33966 35.9792 8.69238C35.9792 8.0451 34.4547 7.52051 33.8074 7.52051Z" fill="white"/>
<path d="M33.8074 11.9141H27.5311C26.8842 11.9141 26.3593 12.4387 26.3593 13.0859C26.3593 13.7332 26.8842 14.2578 27.5311 14.2578H33.8074C34.4543 14.2578 35.9792 13.7332 35.9792 13.0859C35.9792 12.4387 34.4547 11.9141 33.8074 11.9141Z" fill="white"/>
<path d="M33.8074 16.3076H27.5311C26.8842 16.3076 26.3593 16.8322 26.3593 17.4795C26.3593 18.1265 26.8842 18.6514 27.5311 18.6514H33.8074C34.4543 18.6514 35.9792 18.1265 35.9792 17.4795C35.9792 16.8322 34.4547 16.3076 33.8074 16.3076Z" fill="white"/>
</g>
<defs>
<clipPath id="clip0_419_11409">
<rect width="40" height="40" fill="white"/>
</clipPath>
</defs>
</svg>
