<svg width="40" height="40" viewBox="0 0 40 40" fill="none" xmlns="http://www.w3.org/2000/svg">
<g clip-path="url(#clip0_419_11400)">
<path d="M38.8281 29.1921H38.4375V6.11291C38.4375 4.23197 36.9072 2.70166 35.0262 2.70166H5.97375C3.09273 2.70166 1.5625 4.23189 1.5625 6.11291V29.1921H1.17188C0.524687 29.1921 0 29.7167 0 30.3639V33.5848C0 35.6325 1.66594 37.2985 3.71367 37.2985H36.2863C38.3341 37.2985 40 35.6325 40 33.5848V30.3639C40 29.7167 39.4753 29.1921 38.8281 29.1921ZM3.90625 6.11291C3.90625 5.52432 4.38508 5.04541 5.97375 5.04541H35.0262C35.6148 5.04541 36.0938 5.52432 36.0938 6.11291V29.1921H25.9898C24.5176 29.1921 24.0915 29.4756 23.909 29.9111L23.429 31.0568H16.571L16.091 29.9111C15.9085 29.4756 15.4824 29.1921 15.0102 29.1921H3.90625V6.11291ZM37.6562 33.5847C37.6562 34.3401 37.0417 35.9546 36.2863 35.9546H3.71367C2.95836 35.9546 2.34375 34.3401 2.34375 33.5847V31.5357H14.2305L14.7105 32.6814C14.893 33.117 15.3191 33.4005 15.7914 33.4005H24.2086C24.6809 33.4005 25.107 33.117 25.2895 32.6814L25.7695 31.5357H37.6562V33.5847Z" fill="white"/>
<path d="M27.0749 22.7188C27.4131 22.5037 27.6179 22.1308 27.6179 21.73V18.5832L32.389 16.8362C32.8508 16.6671 33.1579 16.2276 33.1579 15.7358C33.1579 15.244 32.8508 14.8045 32.389 14.6354L20.455 10.2654C20.1948 10.17 19.9093 10.17 19.6491 10.2654L7.71507 14.6353C7.2532 14.8044 6.94617 15.2439 6.94617 15.7357C6.94617 16.2275 7.25328 16.667 7.71507 16.8361L8.82015 17.2408V21.7054C8.82015 22.3526 9.34484 22.8773 9.99203 22.8773C10.6392 22.8773 11.1639 22.3526 11.1639 21.7054V18.099L12.3718 18.5413V21.73C12.3718 22.1308 12.5766 22.5037 12.9148 22.7188C15.0345 24.0669 17.4827 24.7795 19.9948 24.7795C22.5069 24.7795 25.9552 24.0669 27.0749 22.7188ZM20.0521 12.6137L28.578 15.7357L20.0521 18.8577L11.5262 15.7357L20.0521 12.6137ZM14.7156 19.3995L19.6491 21.206C19.7792 21.2537 19.9157 21.2775 20.0521 21.2775C20.1885 21.2775 20.325 21.2537 20.4551 21.206L25.2742 19.4414V21.0645C22.0053 22.8826 17.9846 22.8826 14.7157 21.0645L14.7156 19.3995Z" fill="white"/>
</g>
<defs>
<clipPath id="clip0_419_11400">
<rect width="40" height="40" fill="white"/>
</clipPath>
</defs>
</svg>
