<svg width="40" height="40" viewBox="0 0 40 40" fill="none" xmlns="http://www.w3.org/2000/svg">
<path d="M34.2367 3.79757C33.5585 3.56614 32.8505 3.44873 32.1323 3.44865C32.1325 3.39119 32.1334 3.33391 32.1334 3.27646C32.1334 2.62366 32.1183 1.9516 32.0885 1.279C32.0569 0.563667 31.4677 0 30.7515 0H9.24843C8.53238 0 7.9432 0.563578 7.91153 1.27891C7.88173 1.95115 7.86665 2.62322 7.86665 3.27646C7.86665 3.334 7.86745 3.39119 7.86772 3.44865C7.14953 3.44865 6.44151 3.56605 5.76338 3.79757C2.0156 5.07693 0.130196 9.52658 1.56051 13.7167C2.12043 15.357 3.1126 16.7619 4.42978 17.7796C5.73582 18.7886 7.30441 19.3444 8.8466 19.3444C9.56497 19.3444 10.2731 19.2269 10.9513 18.9954C10.9884 18.9828 11.0243 18.9679 11.061 18.9546C11.0971 19.0287 11.1327 19.1034 11.1693 19.1767C12.5582 21.9611 14.2669 23.9809 16.1637 25.1343V32.4207H12.9875C11.6632 32.4207 10.586 33.4979 10.586 34.8222V37.5985C10.586 38.9227 11.6633 40 12.9875 40H27.0127C28.3369 40 29.4142 38.9227 29.4142 37.5985V34.8222C29.4142 33.4979 28.3369 32.4207 27.0127 32.4207H23.8363V25.1343C25.7331 23.9809 27.442 21.9611 28.8309 19.1767C28.8675 19.1034 28.9031 19.0287 28.939 18.9546C28.9758 18.9679 29.0117 18.9828 29.0488 18.9954C29.727 19.2269 30.4351 19.3444 31.1534 19.3444H31.1535C32.6956 19.3444 34.2643 18.7886 35.5703 17.7796C36.8874 16.7619 37.8795 15.357 38.4396 13.7167C39.8698 9.52658 37.9845 5.07693 34.2367 3.79757ZM8.8466 16.6679C6.81497 16.6679 4.86043 15.0987 4.09353 12.852C3.13999 10.0586 4.27696 7.13309 6.62807 6.3305C7.02731 6.19427 7.44448 6.12513 7.86799 6.12513C7.89761 6.12513 7.92714 6.12664 7.95676 6.12727C8.1947 9.87862 8.90102 13.422 10.0184 16.4842C9.63982 16.6056 9.2462 16.6679 8.8466 16.6679ZM26.7376 35.0971V37.3235H13.2623V35.0971H26.7376ZM18.8402 32.4207V26.1569C19.2227 26.2219 19.6094 26.2564 20 26.2564C20.3907 26.2564 20.7774 26.2219 21.1598 26.1569V32.4207H18.8402ZM26.4358 17.9821C24.6613 21.5396 22.3155 23.5799 20 23.5799C17.6845 23.5799 15.3388 21.5395 13.5643 17.9821C11.616 14.0764 10.5431 8.85389 10.5431 3.27646C10.5431 3.07813 10.5446 2.87802 10.5476 2.67648H29.4525C29.4554 2.87802 29.4569 3.07822 29.4569 3.27646C29.4569 8.85389 28.384 14.0764 26.4358 17.9821ZM35.9065 12.852C35.1395 15.0987 33.185 16.6679 31.1534 16.6679C30.7539 16.6679 30.3601 16.6056 29.9816 16.4843C31.0989 13.4221 31.8053 9.87871 32.0432 6.12736C32.0728 6.12673 32.1024 6.12521 32.132 6.12521C32.5555 6.12521 32.9728 6.19436 33.372 6.33059C35.7231 7.13309 36.8601 10.0587 35.9065 12.852Z" fill="white"/>
</svg>
