<svg width="40" height="40" viewBox="0 0 40 40" fill="none" xmlns="http://www.w3.org/2000/svg">
<g clip-path="url(#clip0_419_11383)">
<path d="M11.3392 26.2231C11.3798 24.3517 9.89567 22.8017 8.02432 22.7611C6.15296 22.7205 4.603 24.2046 4.56239 26.076C4.52177 27.9473 6.00588 29.4973 7.87723 29.5379C9.74858 29.5785 11.2985 28.0944 11.3392 26.2231Z" stroke="white" stroke-width="2" stroke-miterlimit="10" stroke-linecap="round" stroke-linejoin="round"/>
<path d="M34.446 28.5468C35.7695 27.2233 35.7695 25.0775 34.446 23.754C33.1225 22.4305 30.9767 22.4305 29.6532 23.754C28.3297 25.0775 28.3297 27.2233 29.6532 28.5468C30.9767 29.8703 33.1225 29.8703 34.446 28.5468Z" stroke="white" stroke-width="2" stroke-miterlimit="10" stroke-linecap="round" stroke-linejoin="round"/>
<path d="M23.3813 26.391C23.514 24.5239 22.108 22.9028 20.241 22.7701C18.3739 22.6374 16.7528 24.0434 16.6201 25.9104C16.4874 27.7775 17.8933 29.3986 19.7604 29.5313C21.6274 29.664 23.2486 28.258 23.3813 26.391Z" stroke="white" stroke-width="2" stroke-miterlimit="10" stroke-linecap="round" stroke-linejoin="round"/>
<path d="M13.2219 36.3177C13.2219 35.1974 13.4938 34.1405 13.975 33.2092C12.848 31.0295 10.573 29.5396 7.95 29.5396C4.20656 29.5396 1.17188 32.574 1.17188 36.3177V38.8281H13.2219V36.3177Z" stroke="white" stroke-width="2" stroke-miterlimit="10" stroke-linecap="round" stroke-linejoin="round"/>
<path d="M26.025 33.2092C26.5063 34.1406 26.7781 35.1974 26.7781 36.3177V38.8281H38.8281V36.3177C38.8281 32.574 35.7934 29.5396 32.05 29.5396C29.4269 29.5396 27.1519 31.0295 26.025 33.2092Z" stroke="white" stroke-width="2" stroke-miterlimit="10" stroke-linecap="round" stroke-linejoin="round"/>
<path d="M26.7781 36.3177C26.7781 32.574 23.7434 29.5396 20 29.5396C16.2566 29.5396 13.2219 32.574 13.2219 36.3177V38.8281H26.7781V36.3177Z" stroke="white" stroke-width="2" stroke-miterlimit="10" stroke-linecap="round" stroke-linejoin="round"/>
<path d="M7.95 5.57766L19.996 9.98344L32.05 5.57766L20 1.17188L7.95 5.57766Z" stroke="white" stroke-width="2" stroke-miterlimit="10" stroke-linecap="round" stroke-linejoin="round"/>
<path d="M26.276 7.68848V15.1946L19.996 17.4898L13.724 15.1959V7.68848L20 9.98363L26.276 7.68848Z" stroke="white" stroke-width="2" stroke-miterlimit="10" stroke-linecap="round" stroke-linejoin="round"/>
<path d="M32.05 5.57764V13.724" stroke="white" stroke-width="2" stroke-miterlimit="10" stroke-linecap="round" stroke-linejoin="round"/>
</g>
<defs>
<clipPath id="clip0_419_11383">
<rect width="40" height="40" fill="white"/>
</clipPath>
</defs>
</svg>
