<svg width="20" height="20" viewBox="0 0 20 20" fill="none" xmlns="http://www.w3.org/2000/svg">
<mask id="mask0_7_743" style="mask-type:luminance" maskUnits="userSpaceOnUse" x="0" y="0" width="20" height="20">
<path d="M20 0H0V20H20V0Z" fill="white"/>
</mask>
<g mask="url(#mask0_7_743)">
<path d="M16.5655 5.92909C16.0717 6.14457 15.5495 6.28782 15.0148 6.35442C15.5784 6.02011 15.9996 5.49065 16.1988 4.86642C15.6712 5.17926 15.094 5.39954 14.4922 5.51776C14.123 5.12407 13.6441 4.85044 13.1175 4.7324C12.5909 4.61437 12.041 4.65737 11.5391 4.85582C11.0373 5.05427 10.6067 5.39902 10.3032 5.84529C9.9998 6.29157 9.83753 6.81876 9.8375 7.35842C9.83546 7.56478 9.85648 7.77073 9.90017 7.97242C8.82948 7.91987 7.78194 7.64194 6.82603 7.1568C5.87012 6.67166 5.02736 5.99024 4.35283 5.15709C4.00559 5.74948 3.89785 6.45216 4.05164 7.12137C4.20544 7.79059 4.60914 8.37574 5.18017 8.75709C4.75397 8.74512 4.3369 8.63079 3.96417 8.42376V8.45309C3.96491 9.07453 4.17968 9.67676 4.57235 10.1584C4.96502 10.6401 5.51162 10.9718 6.12017 11.0978C5.89002 11.1584 5.65283 11.1882 5.41483 11.1864C5.24343 11.1893 5.07221 11.1737 4.90417 11.1398C5.07817 11.6738 5.41339 12.1408 5.86372 12.4765C6.31404 12.8122 6.85733 13.0002 7.41883 13.0144C6.46607 13.7595 5.29102 14.1637 4.0815 14.1624C3.86626 14.1637 3.65115 14.1513 3.4375 14.1251C4.66812 14.9182 6.10214 15.3377 7.56617 15.3331C8.57393 15.3401 9.57305 15.1468 10.5055 14.7644C11.4379 14.382 12.2851 13.8182 12.9977 13.1056C13.7104 12.3931 14.2744 11.546 14.657 10.6136C15.0395 9.68127 15.233 8.68219 15.2262 7.67442C15.2262 7.55576 15.2222 7.44042 15.2162 7.32642C15.7472 6.94656 16.2044 6.47303 16.5655 5.92909Z" fill="#F9E8D9"/>
</g>
</svg>
