<svg width="24" height="24" viewBox="0 0 24 24" fill="none" xmlns="http://www.w3.org/2000/svg">
<g clip-path="url(#clip0_953_11912)">
<path d="M2.85938 23.2969C2.85938 23.6852 3.17419 24 3.5625 24H20.4375C20.8258 24 21.1406 23.6852 21.1406 23.2969V21.1406H2.85938V23.2969Z" fill="#EE2527"/>
<path d="M12 5.625C8.12297 5.625 4.96875 8.77922 4.96875 12.6562V19.7344H19.0312V12.6562C19.0312 8.77922 15.877 5.625 12 5.625Z" fill="#EE2527"/>
<path d="M11.9531 4.21875C12.3414 4.21875 12.6562 3.90394 12.6562 3.51562V0.703125C12.6562 0.314812 12.3414 0 11.9531 0C11.5648 0 11.25 0.314812 11.25 0.703125V3.51562C11.25 3.90394 11.5648 4.21875 11.9531 4.21875Z" fill="#EE2527"/>
<path d="M6.41661 5.21264C6.61138 5.54999 7.04174 5.66357 7.37708 5.46998C7.71341 5.27582 7.82863 4.84579 7.63442 4.50951L6.22817 2.07384C6.03397 1.73751 5.60399 1.62234 5.26771 1.81649C4.93138 2.01065 4.81616 2.44068 5.01036 2.77696L6.41661 5.21264Z" fill="#EE2527"/>
<path d="M4.04085 8.84144C4.23505 8.50516 4.11983 8.07512 3.7835 7.88097L1.34778 6.47472C1.01146 6.28052 0.581425 6.39573 0.387316 6.73206C0.193113 7.06834 0.308331 7.49837 0.64466 7.69253L3.08038 9.09878C3.41521 9.29214 3.84585 9.17922 4.04085 8.84144Z" fill="#EE2527"/>
<path d="M16.6232 5.47002C16.958 5.66338 17.3886 5.55041 17.5836 5.21268L18.9899 2.777C19.1841 2.44072 19.0689 2.01069 18.7325 1.81654C18.3963 1.62229 17.9662 1.73755 17.7721 2.07388L16.3658 4.50955C16.1716 4.84583 16.2868 5.27586 16.6232 5.47002Z" fill="#EE2527"/>
<path d="M23.6131 6.73202C23.4189 6.39569 22.989 6.28057 22.6526 6.47468L20.2169 7.88093C19.8806 8.07508 19.7654 8.50511 19.9596 8.84139C20.1543 9.17875 20.5847 9.29233 20.92 9.09874L23.3558 7.69249C23.6921 7.49833 23.8073 7.06835 23.6131 6.73202Z" fill="#EE2527"/>
</g>
<defs>
<clipPath id="clip0_953_11912">
<rect width="24" height="24" fill="white"/>
</clipPath>
</defs>
</svg>
