<svg width="16" height="15" viewBox="0 0 16 15" fill="none" xmlns="http://www.w3.org/2000/svg">
<path fill-rule="evenodd" clip-rule="evenodd" d="M15.2187 9.19048V14.6652H12.0673V9.5502C12.0673 8.27168 11.6306 7.39187 10.4952 7.39187C10.1421 7.3968 9.7987 7.51019 9.51039 7.71708C9.22208 7.92397 9.00237 8.21465 8.88021 8.55078C8.79662 8.79473 8.75668 9.05188 8.76229 9.31009V14.6652H5.61095C5.61095 14.6652 5.65026 5.99374 5.61095 5.11482H8.76229V6.47308C8.76241 6.47835 8.76148 6.48358 8.75955 6.48848C8.75761 6.49337 8.75472 6.49781 8.75104 6.50154C8.74737 6.50527 8.74299 6.5082 8.73817 6.51016C8.73335 6.51212 8.72818 6.51307 8.72299 6.51295H8.76229V6.47308C9.04758 5.97097 9.46235 5.5572 9.96202 5.27621C10.4617 4.99523 11.0274 4.85765 11.5983 4.87825C13.643 4.87471 15.2187 6.27372 15.2187 9.19048ZM2.37577 0.519069C2.15165 0.500713 1.92621 0.529293 1.71343 0.603036C1.50066 0.676778 1.3051 0.794108 1.13891 0.947738C0.972721 1.10137 0.839444 1.28802 0.747351 1.4961C0.655259 1.70417 0.606317 1.92924 0.603574 2.15731C0.601669 2.38328 0.646132 2.60718 0.734117 2.81479C0.822102 3.02239 0.951688 3.20916 1.11466 3.36323C1.27763 3.51729 1.4704 3.63529 1.68074 3.70972C1.89108 3.78414 2.11439 3.81337 2.33647 3.79555H2.37577C2.60064 3.81744 2.82754 3.79133 3.04187 3.7189C3.25619 3.64648 3.4532 3.52935 3.62021 3.37504C3.78722 3.22073 3.92054 3.03265 4.01159 2.82293C4.10263 2.6132 4.14938 2.38647 4.14883 2.15731C4.14335 1.93003 4.09253 1.70623 3.99946 1.49942C3.90639 1.2926 3.77299 1.10705 3.6073 0.953964C3.44161 0.800874 3.24706 0.683414 3.0354 0.60867C2.82374 0.533926 2.59936 0.503446 2.37577 0.519069ZM0.760799 14.6652H3.87283V5.11482H0.760799V14.6652Z" fill="white"/>
</svg>
